<?xml version="1.0" encoding="us-ascii" standalone="no"?><svg xmlns="http://www.w3.org/2000/svg" xmlns:xlink="http://www.w3.org/1999/xlink" contentStyleType="text/css" height="600px" preserveAspectRatio="none" style="width:374px;height:600px;background:#FFFFFF;" version="1.1" viewBox="0 0 374 600" width="374px" zoomAndPan="magnify"><defs/><g><!--class persons--><g id="elem_persons"><rect codeLine="2" fill="#F1F1F1" height="80.5938" id="persons" rx="2.5" ry="2.5" style="stroke:#181818;stroke-width:0.5;" width="121" x="51" y="15"/><ellipse cx="80.4" cy="31" fill="#ADD1B2" rx="11" ry="11" style="stroke:#181818;stroke-width:1.0;"/><path d="M83.3688,36.6406 Q82.7906,36.9375 82.15,37.0781 Q81.5094,37.2344 80.8063,37.2344 Q78.3063,37.2344 76.9781,35.5938 Q75.6656,33.9375 75.6656,30.8125 Q75.6656,27.6875 76.9781,26.0313 Q78.3063,24.375 80.8063,24.375 Q81.5094,24.375 82.15,24.5313 Q82.8063,24.6875 83.3688,24.9844 L83.3688,27.7031 Q82.7438,27.125 82.15,26.8594 Q81.5563,26.5781 80.9313,26.5781 Q79.5875,26.5781 78.9,27.6563 Q78.2125,28.7188 78.2125,30.8125 Q78.2125,32.9063 78.9,33.9844 Q79.5875,35.0469 80.9313,35.0469 Q81.5563,35.0469 82.15,34.7813 Q82.7438,34.5 83.3688,33.9219 L83.3688,36.6406 Z " fill="#000000"/><text fill="#000000" font-family="sans-serif" font-size="14" lengthAdjust="spacing" textLength="57" x="97.6" y="35.8467">persons</text><line style="stroke:#181818;stroke-width:0.5;" x1="52" x2="171" y1="47" y2="47"/><text fill="#000000" font-family="sans-serif" font-size="14" lengthAdjust="spacing" textLength="68" x="57" y="63.9951">last-name</text><text fill="#000000" font-family="sans-serif" font-size="14" lengthAdjust="spacing" textLength="109" x="57" y="80.292">used-first-name</text><line style="stroke:#181818;stroke-width:0.5;" x1="52" x2="171" y1="87.5938" y2="87.5938"/></g><!--class identifiers--><g id="elem_identifiers"><rect codeLine="7" fill="#F1F1F1" height="64.2969" id="identifiers" rx="2.5" ry="2.5" style="stroke:#181818;stroke-width:0.5;" width="99" x="7" y="197.5"/><ellipse cx="22" cy="213.5" fill="#ADD1B2" rx="11" ry="11" style="stroke:#181818;stroke-width:1.0;"/><path d="M24.9688,219.1406 Q24.3906,219.4375 23.75,219.5781 Q23.1094,219.7344 22.4063,219.7344 Q19.9063,219.7344 18.5781,218.0938 Q17.2656,216.4375 17.2656,213.3125 Q17.2656,210.1875 18.5781,208.5313 Q19.9063,206.875 22.4063,206.875 Q23.1094,206.875 23.75,207.0313 Q24.4063,207.1875 24.9688,207.4844 L24.9688,210.2031 Q24.3438,209.625 23.75,209.3594 Q23.1563,209.0781 22.5313,209.0781 Q21.1875,209.0781 20.5,210.1563 Q19.8125,211.2188 19.8125,213.3125 Q19.8125,215.4063 20.5,216.4844 Q21.1875,217.5469 22.5313,217.5469 Q23.1563,217.5469 23.75,217.2813 Q24.3438,217 24.9688,216.4219 L24.9688,219.1406 Z " fill="#000000"/><text fill="#000000" font-family="sans-serif" font-size="14" lengthAdjust="spacing" textLength="67" x="36" y="218.3467">identifiers</text><line style="stroke:#181818;stroke-width:0.5;" x1="8" x2="105" y1="229.5" y2="229.5"/><text fill="#000000" font-family="sans-serif" font-size="14" lengthAdjust="spacing" textLength="59" x="13" y="246.4951">identifier</text><line style="stroke:#181818;stroke-width:0.5;" x1="8" x2="105" y1="253.7969" y2="253.7969"/></g><!--class contact-points--><g id="elem_contact-points"><rect codeLine="21" fill="#F1F1F1" height="96.8906" id="contact-points" rx="2.5" ry="2.5" style="stroke:#181818;stroke-width:0.5;" width="132" x="141.5" y="181"/><ellipse cx="156.5" cy="197" fill="#ADD1B2" rx="11" ry="11" style="stroke:#181818;stroke-width:1.0;"/><path d="M159.4688,202.6406 Q158.8906,202.9375 158.25,203.0781 Q157.6094,203.2344 156.9063,203.2344 Q154.4063,203.2344 153.0781,201.5938 Q151.7656,199.9375 151.7656,196.8125 Q151.7656,193.6875 153.0781,192.0313 Q154.4063,190.375 156.9063,190.375 Q157.6094,190.375 158.25,190.5313 Q158.9063,190.6875 159.4688,190.9844 L159.4688,193.7031 Q158.8438,193.125 158.25,192.8594 Q157.6563,192.5781 157.0313,192.5781 Q155.6875,192.5781 155,193.6563 Q154.3125,194.7188 154.3125,196.8125 Q154.3125,198.9063 155,199.9844 Q155.6875,201.0469 157.0313,201.0469 Q157.6563,201.0469 158.25,200.7813 Q158.8438,200.5 159.4688,199.9219 L159.4688,202.6406 Z " fill="#000000"/><text fill="#000000" font-family="sans-serif" font-size="14" lengthAdjust="spacing" textLength="100" x="170.5" y="201.8467">contact-points</text><line style="stroke:#181818;stroke-width:0.5;" x1="142.5" x2="272.5" y1="213" y2="213"/><text fill="#000000" font-family="sans-serif" font-size="14" lengthAdjust="spacing" textLength="39" x="147.5" y="229.9951">name</text><text fill="#000000" font-family="sans-serif" font-size="14" lengthAdjust="spacing" textLength="36" x="147.5" y="246.292">email</text><text fill="#000000" font-family="sans-serif" font-size="14" lengthAdjust="spacing" textLength="71" x="147.5" y="262.5889">telephone</text><line style="stroke:#181818;stroke-width:0.5;" x1="142.5" x2="272.5" y1="269.8906" y2="269.8906"/></g><!--class addresses--><g id="elem_addresses"><rect codeLine="9" fill="#F1F1F1" height="48" id="addresses" rx="2.5" ry="2.5" style="stroke:#181818;stroke-width:0.5;" width="105" x="155" y="545"/><ellipse cx="170" cy="561" fill="#ADD1B2" rx="11" ry="11" style="stroke:#181818;stroke-width:1.0;"/><path d="M172.9688,566.6406 Q172.3906,566.9375 171.75,567.0781 Q171.1094,567.2344 170.4063,567.2344 Q167.9063,567.2344 166.5781,565.5938 Q165.2656,563.9375 165.2656,560.8125 Q165.2656,557.6875 166.5781,556.0313 Q167.9063,554.375 170.4063,554.375 Q171.1094,554.375 171.75,554.5313 Q172.4063,554.6875 172.9688,554.9844 L172.9688,557.7031 Q172.3438,557.125 171.75,556.8594 Q171.1563,556.5781 170.5313,556.5781 Q169.1875,556.5781 168.5,557.6563 Q167.8125,558.7188 167.8125,560.8125 Q167.8125,562.9063 168.5,563.9844 Q169.1875,565.0469 170.5313,565.0469 Q171.1563,565.0469 171.75,564.7813 Q172.3438,564.5 172.9688,563.9219 L172.9688,566.6406 Z " fill="#000000"/><text fill="#000000" font-family="sans-serif" font-size="14" lengthAdjust="spacing" textLength="73" x="184" y="565.8467">addresses</text><line style="stroke:#181818;stroke-width:0.5;" x1="156" x2="259" y1="577" y2="577"/><line style="stroke:#181818;stroke-width:0.5;" x1="156" x2="259" y1="585" y2="585"/></g><!--class address-representations--><g id="elem_address-representations"><rect codeLine="15" fill="#F1F1F1" height="113.1875" id="address-representations" rx="2.5" ry="2.5" style="stroke:#181818;stroke-width:0.5;" width="203" x="106" y="355"/><ellipse cx="121" cy="371" fill="#ADD1B2" rx="11" ry="11" style="stroke:#181818;stroke-width:1.0;"/><path d="M123.9688,376.6406 Q123.3906,376.9375 122.75,377.0781 Q122.1094,377.2344 121.4063,377.2344 Q118.9063,377.2344 117.5781,375.5938 Q116.2656,373.9375 116.2656,370.8125 Q116.2656,367.6875 117.5781,366.0313 Q118.9063,364.375 121.4063,364.375 Q122.1094,364.375 122.75,364.5313 Q123.4063,364.6875 123.9688,364.9844 L123.9688,367.7031 Q123.3438,367.125 122.75,366.8594 Q122.1563,366.5781 121.5313,366.5781 Q120.1875,366.5781 119.5,367.6563 Q118.8125,368.7188 118.8125,370.8125 Q118.8125,372.9063 119.5,373.9844 Q120.1875,375.0469 121.5313,375.0469 Q122.1563,375.0469 122.75,374.7813 Q123.3438,374.5 123.9688,373.9219 L123.9688,376.6406 Z " fill="#000000"/><text fill="#000000" font-family="sans-serif" font-size="14" lengthAdjust="spacing" textLength="171" x="135" y="375.8467">address-representations</text><line style="stroke:#181818;stroke-width:0.5;" x1="107" x2="308" y1="387" y2="387"/><text fill="#000000" font-family="sans-serif" font-size="14" lengthAdjust="spacing" textLength="124" x="112" y="403.9951">municipality-name</text><text fill="#000000" font-family="sans-serif" font-size="14" lengthAdjust="spacing" textLength="85" x="112" y="420.292">street-name</text><text fill="#000000" font-family="sans-serif" font-size="14" lengthAdjust="spacing" textLength="82" x="112" y="436.5889">postal-code</text><text fill="#000000" font-family="sans-serif" font-size="14" lengthAdjust="spacing" textLength="85" x="112" y="452.8857">bus-number</text><line style="stroke:#181818;stroke-width:0.5;" x1="107" x2="308" y1="460.1875" y2="460.1875"/></g><!--class location-parcels--><g id="elem_location-parcels"><rect codeLine="11" fill="#F1F1F1" height="96.8906" id="location-parcels" rx="2.5" ry="2.5" style="stroke:#181818;stroke-width:0.5;" width="160" x="207.5" y="7"/><ellipse cx="231.05" cy="23" fill="#ADD1B2" rx="11" ry="11" style="stroke:#181818;stroke-width:1.0;"/><path d="M234.0188,28.6406 Q233.4406,28.9375 232.8,29.0781 Q232.1594,29.2344 231.4563,29.2344 Q228.9563,29.2344 227.6281,27.5938 Q226.3156,25.9375 226.3156,22.8125 Q226.3156,19.6875 227.6281,18.0313 Q228.9563,16.375 231.4563,16.375 Q232.1594,16.375 232.8,16.5313 Q233.4563,16.6875 234.0188,16.9844 L234.0188,19.7031 Q233.3938,19.125 232.8,18.8594 Q232.2063,18.5781 231.5813,18.5781 Q230.2375,18.5781 229.55,19.6563 Q228.8625,20.7188 228.8625,22.8125 Q228.8625,24.9063 229.55,25.9844 Q230.2375,27.0469 231.5813,27.0469 Q232.2063,27.0469 232.8,26.7813 Q233.3938,26.5 234.0188,25.9219 L234.0188,28.6406 Z " fill="#000000"/><text fill="#000000" font-family="sans-serif" font-size="14" lengthAdjust="spacing" textLength="109" x="246.95" y="27.8467">location-parcels</text><line style="stroke:#181818;stroke-width:0.5;" x1="208.5" x2="366.5" y1="39" y2="39"/><text fill="#000000" font-family="sans-serif" font-size="14" lengthAdjust="spacing" textLength="148" x="213.5" y="55.9951">cadastral-department</text><text fill="#000000" font-family="sans-serif" font-size="14" lengthAdjust="spacing" textLength="51" x="213.5" y="72.292">section</text><text fill="#000000" font-family="sans-serif" font-size="14" lengthAdjust="spacing" textLength="54" x="213.5" y="88.5889">number</text><line style="stroke:#181818;stroke-width:0.5;" x1="208.5" x2="366.5" y1="95.8906" y2="95.8906"/></g><!--link persons to identifiers--><g id="link_persons_identifiers"><path codeLine="5" d="M89.39,96.23 C83.52,108.1 77.66,121.33 73.5,134 C66.75,154.59 63.2909,172.6964 60.7109,191.3764 " fill="none" id="persons-to-identifiers" style="stroke:#181818;stroke-width:1.0;"/><polygon fill="#181818" points="59.89,197.32,65.0837,188.9519,60.5741,192.367,57.159,187.8574,59.89,197.32" style="stroke:#181818;stroke-width:1.0;"/><polygon fill="#000000" points="77.057,147.3537,82.4813,139.5416,76.8535,137.8453,77.057,147.3537" style="stroke:#000000;stroke-width:1.0;"/><text fill="#000000" font-family="sans-serif" font-size="13" lengthAdjust="spacing" textLength="55" x="87.5" y="147.0669">identifier</text><text fill="#000000" font-family="sans-serif" font-size="13" lengthAdjust="spacing" textLength="8" x="51.7642" y="186.186">1</text></g><!--link persons to contact-points--><g id="link_persons_contact-points"><path codeLine="6" d="M133.77,96.39 C147.83,121.6 163.1649,149.0713 177.9949,175.6313 " fill="none" id="persons-to-contact-points" style="stroke:#181818;stroke-width:1.0;"/><polygon fill="#181818" points="180.92,180.87,180.0249,171.0619,178.4824,176.5044,173.0399,174.962,180.92,180.87" style="stroke:#181818;stroke-width:1.0;"/><polygon fill="#000000" points="169.9367,146.9325,168.095,137.6019,162.9624,140.4665,169.9367,146.9325" style="stroke:#000000;stroke-width:1.0;"/><text fill="#000000" font-family="sans-serif" font-size="13" lengthAdjust="spacing" textLength="92" x="176.5" y="147.0669">contact-points</text><text fill="#000000" font-family="sans-serif" font-size="13" lengthAdjust="spacing" textLength="7" x="169.69" y="170.0606">*</text></g><!--link addresses to address-representations--><g id="link_addresses_address-representations"><path codeLine="10" d="M219.95,544.94 C224.19,535.88 228.38,525.21 230.5,515 C233.67,499.73 233.4762,489.0838 230.0562,473.8738 " fill="none" id="addresses-to-address-representations" style="stroke:#181818;stroke-width:1.0;"/><polygon fill="#181818" points="228.74,468.02,226.8118,477.6783,229.8369,472.8982,234.6169,475.9233,228.74,468.02" style="stroke:#181818;stroke-width:1.0;"/><polygon fill="#000000" points="237.204,501.6162,233.0208,510.1574,238.8401,510.985,237.204,501.6162" style="stroke:#000000;stroke-width:1.0;"/><text fill="#000000" font-family="sans-serif" font-size="13" lengthAdjust="spacing" textLength="89" x="245.5" y="511.0669">referenced-by</text><text fill="#000000" font-family="sans-serif" font-size="13" lengthAdjust="spacing" textLength="7" x="224.0129" y="488.286">*</text></g><!--link address-representations to addresses--><g id="link_address-representations_addresses"><path codeLine="20" d="M154.9,468.18 C148.6,477.55 143.13,487.61 139.5,498 C133.02,516.56 141.5333,529.1331 158.0733,541.2031 " fill="none" id="address-representations-to-addresses" style="stroke:#181818;stroke-width:1.0;"/><polygon fill="#181818" points="162.92,544.74,158.0078,536.2036,158.8811,541.7926,153.292,542.6658,162.92,544.74" style="stroke:#181818;stroke-width:1.0;"/><polygon fill="#000000" points="144.7171,511.5617,147.2605,502.3975,141.3882,502.6527,144.7171,511.5617" style="stroke:#000000;stroke-width:1.0;"/><text fill="#000000" font-family="sans-serif" font-size="13" lengthAdjust="spacing" textLength="68" x="153.5" y="511.0669">references</text><text fill="#000000" font-family="sans-serif" font-size="13" lengthAdjust="spacing" textLength="8" x="143.0786" y="534.0816">1</text></g><!--link contact-points to address-representations--><g id="link_contact-points_address-representations"><path codeLine="25" d="M207.5,278.26 C207.5,301.8 207.5,324.33 207.5,348.85 " fill="none" id="contact-points-to-address-representations" style="stroke:#181818;stroke-width:1.0;"/><polygon fill="#181818" points="207.5,354.85,211.5,345.85,207.5,349.85,203.5,345.85,207.5,354.85" style="stroke:#181818;stroke-width:1.0;"/><polygon fill="#000000" points="212.5,321.5664,215.4389,312.5213,209.5611,312.5213,212.5,321.5664" style="stroke:#000000;stroke-width:1.0;"/><text fill="#000000" font-family="sans-serif" font-size="13" lengthAdjust="spacing" textLength="51" x="221.5" y="321.0669">address</text><text fill="#000000" font-family="sans-serif" font-size="13" lengthAdjust="spacing" textLength="8" x="199.0125" y="344.0953">1</text></g><!--SRC=[XLExRiCm3Dpz5OB70XgoTiXFz0jeYKO5w0MH7lBtfH8rTYp7cIppZjGTIH6oYX2GCXZymGm5E1KLKyJ1U21IOyP2AT8uF4_gMmd4kYQ-H1T2gsTNUaphgnelengTnSXkTWBKZFLNNTMU_oLyaoA3OPsJYtnFUOtKj2PqMtfuVz4_7QmjI8ILl9xNcrjC5ypobMnWrtmMdB5WDE9skcqK-6Jk92rzDEXhvIvK7O2LzXNmsjQESv3Ynqn2KqF7O5p2rDdfv0vdHi8IdN4PlEDR6za9MpGZycTUJiHYpYHxpfiMqit4UzfpSpOpsanWkm2xNHaEbkUXlOzZ0EUF04QF-RS-XmxSApkos20H-GS0]--></g></svg>