<?xml version="1.0" encoding="us-ascii" standalone="no"?><svg xmlns="http://www.w3.org/2000/svg" xmlns:xlink="http://www.w3.org/1999/xlink" contentStyleType="text/css" height="789px" preserveAspectRatio="none" style="width:582px;height:789px;background:#FFFFFF;" version="1.1" viewBox="0 0 582 789" width="582px" zoomAndPan="magnify"><defs/><g><!--class persons--><g id="elem_persons"><rect codeLine="2" fill="#F1F1F1" height="80.5938" id="persons" rx="2.5" ry="2.5" style="stroke:#181818;stroke-width:0.5;" width="121" x="106" y="181"/><ellipse cx="135.4" cy="197" fill="#ADD1B2" rx="11" ry="11" style="stroke:#181818;stroke-width:1.0;"/><path d="M138.3688,202.6406 Q137.7906,202.9375 137.15,203.0781 Q136.5094,203.2344 135.8063,203.2344 Q133.3063,203.2344 131.9781,201.5938 Q130.6656,199.9375 130.6656,196.8125 Q130.6656,193.6875 131.9781,192.0313 Q133.3063,190.375 135.8063,190.375 Q136.5094,190.375 137.15,190.5313 Q137.8063,190.6875 138.3688,190.9844 L138.3688,193.7031 Q137.7438,193.125 137.15,192.8594 Q136.5563,192.5781 135.9313,192.5781 Q134.5875,192.5781 133.9,193.6563 Q133.2125,194.7188 133.2125,196.8125 Q133.2125,198.9063 133.9,199.9844 Q134.5875,201.0469 135.9313,201.0469 Q136.5563,201.0469 137.15,200.7813 Q137.7438,200.5 138.3688,199.9219 L138.3688,202.6406 Z " fill="#000000"/><text fill="#000000" font-family="sans-serif" font-size="14" lengthAdjust="spacing" textLength="57" x="152.6" y="201.8467">persons</text><line style="stroke:#181818;stroke-width:0.5;" x1="107" x2="226" y1="213" y2="213"/><text fill="#000000" font-family="sans-serif" font-size="14" lengthAdjust="spacing" textLength="68" x="112" y="229.9951">last-name</text><text fill="#000000" font-family="sans-serif" font-size="14" lengthAdjust="spacing" textLength="109" x="112" y="246.292">used-first-name</text><line style="stroke:#181818;stroke-width:0.5;" x1="107" x2="226" y1="253.5938" y2="253.5938"/></g><!--class identifiers--><g id="elem_identifiers"><rect codeLine="7" fill="#F1F1F1" height="64.2969" id="identifiers" rx="2.5" ry="2.5" style="stroke:#181818;stroke-width:0.5;" width="99" x="7" y="386.5"/><ellipse cx="22" cy="402.5" fill="#ADD1B2" rx="11" ry="11" style="stroke:#181818;stroke-width:1.0;"/><path d="M24.9688,408.1406 Q24.3906,408.4375 23.75,408.5781 Q23.1094,408.7344 22.4063,408.7344 Q19.9063,408.7344 18.5781,407.0938 Q17.2656,405.4375 17.2656,402.3125 Q17.2656,399.1875 18.5781,397.5313 Q19.9063,395.875 22.4063,395.875 Q23.1094,395.875 23.75,396.0313 Q24.4063,396.1875 24.9688,396.4844 L24.9688,399.2031 Q24.3438,398.625 23.75,398.3594 Q23.1563,398.0781 22.5313,398.0781 Q21.1875,398.0781 20.5,399.1563 Q19.8125,400.2188 19.8125,402.3125 Q19.8125,404.4063 20.5,405.4844 Q21.1875,406.5469 22.5313,406.5469 Q23.1563,406.5469 23.75,406.2813 Q24.3438,406 24.9688,405.4219 L24.9688,408.1406 Z " fill="#000000"/><text fill="#000000" font-family="sans-serif" font-size="14" lengthAdjust="spacing" textLength="67" x="36" y="407.3467">identifiers</text><line style="stroke:#181818;stroke-width:0.5;" x1="8" x2="105" y1="418.5" y2="418.5"/><text fill="#000000" font-family="sans-serif" font-size="14" lengthAdjust="spacing" textLength="59" x="13" y="435.4951">identifier</text><line style="stroke:#181818;stroke-width:0.5;" x1="8" x2="105" y1="442.7969" y2="442.7969"/></g><!--class contact-points--><g id="elem_contact-points"><rect codeLine="30" fill="#F1F1F1" height="96.8906" id="contact-points" rx="2.5" ry="2.5" style="stroke:#181818;stroke-width:0.5;" width="132" x="151.5" y="370"/><ellipse cx="166.5" cy="386" fill="#ADD1B2" rx="11" ry="11" style="stroke:#181818;stroke-width:1.0;"/><path d="M169.4688,391.6406 Q168.8906,391.9375 168.25,392.0781 Q167.6094,392.2344 166.9063,392.2344 Q164.4063,392.2344 163.0781,390.5938 Q161.7656,388.9375 161.7656,385.8125 Q161.7656,382.6875 163.0781,381.0313 Q164.4063,379.375 166.9063,379.375 Q167.6094,379.375 168.25,379.5313 Q168.9063,379.6875 169.4688,379.9844 L169.4688,382.7031 Q168.8438,382.125 168.25,381.8594 Q167.6563,381.5781 167.0313,381.5781 Q165.6875,381.5781 165,382.6563 Q164.3125,383.7188 164.3125,385.8125 Q164.3125,387.9063 165,388.9844 Q165.6875,390.0469 167.0313,390.0469 Q167.6563,390.0469 168.25,389.7813 Q168.8438,389.5 169.4688,388.9219 L169.4688,391.6406 Z " fill="#000000"/><text fill="#000000" font-family="sans-serif" font-size="14" lengthAdjust="spacing" textLength="100" x="180.5" y="390.8467">contact-points</text><line style="stroke:#181818;stroke-width:0.5;" x1="152.5" x2="282.5" y1="402" y2="402"/><text fill="#000000" font-family="sans-serif" font-size="14" lengthAdjust="spacing" textLength="39" x="157.5" y="418.9951">name</text><text fill="#000000" font-family="sans-serif" font-size="14" lengthAdjust="spacing" textLength="36" x="157.5" y="435.292">email</text><text fill="#000000" font-family="sans-serif" font-size="14" lengthAdjust="spacing" textLength="71" x="157.5" y="451.5889">telephone</text><line style="stroke:#181818;stroke-width:0.5;" x1="152.5" x2="282.5" y1="458.8906" y2="458.8906"/></g><!--class designation-objects--><g id="elem_designation-objects"><rect codeLine="9" fill="#F1F1F1" height="48" id="designation-objects" rx="2.5" ry="2.5" style="stroke:#181818;stroke-width:0.5;" width="169" x="279" y="292"/><ellipse cx="294" cy="308" fill="#ADD1B2" rx="11" ry="11" style="stroke:#181818;stroke-width:1.0;"/><path d="M296.9688,313.6406 Q296.3906,313.9375 295.75,314.0781 Q295.1094,314.2344 294.4063,314.2344 Q291.9063,314.2344 290.5781,312.5938 Q289.2656,310.9375 289.2656,307.8125 Q289.2656,304.6875 290.5781,303.0313 Q291.9063,301.375 294.4063,301.375 Q295.1094,301.375 295.75,301.5313 Q296.4063,301.6875 296.9688,301.9844 L296.9688,304.7031 Q296.3438,304.125 295.75,303.8594 Q295.1563,303.5781 294.5313,303.5781 Q293.1875,303.5781 292.5,304.6563 Q291.8125,305.7188 291.8125,307.8125 Q291.8125,309.9063 292.5,310.9844 Q293.1875,312.0469 294.5313,312.0469 Q295.1563,312.0469 295.75,311.7813 Q296.3438,311.5 296.9688,310.9219 L296.9688,313.6406 Z " fill="#000000"/><text fill="#000000" font-family="sans-serif" font-size="14" lengthAdjust="spacing" textLength="137" x="308" y="312.8467">designation-objects</text><line style="stroke:#181818;stroke-width:0.5;" x1="280" x2="447" y1="324" y2="324"/><line style="stroke:#181818;stroke-width:0.5;" x1="280" x2="447" y1="332" y2="332"/></g><!--class address-representations--><g id="elem_address-representations"><rect codeLine="19" fill="#F1F1F1" height="113.1875" id="address-representations" rx="2.5" ry="2.5" style="stroke:#181818;stroke-width:0.5;" width="203" x="186" y="544"/><ellipse cx="201" cy="560" fill="#ADD1B2" rx="11" ry="11" style="stroke:#181818;stroke-width:1.0;"/><path d="M203.9688,565.6406 Q203.3906,565.9375 202.75,566.0781 Q202.1094,566.2344 201.4063,566.2344 Q198.9063,566.2344 197.5781,564.5938 Q196.2656,562.9375 196.2656,559.8125 Q196.2656,556.6875 197.5781,555.0313 Q198.9063,553.375 201.4063,553.375 Q202.1094,553.375 202.75,553.5313 Q203.4063,553.6875 203.9688,553.9844 L203.9688,556.7031 Q203.3438,556.125 202.75,555.8594 Q202.1563,555.5781 201.5313,555.5781 Q200.1875,555.5781 199.5,556.6563 Q198.8125,557.7188 198.8125,559.8125 Q198.8125,561.9063 199.5,562.9844 Q200.1875,564.0469 201.5313,564.0469 Q202.1563,564.0469 202.75,563.7813 Q203.3438,563.5 203.9688,562.9219 L203.9688,565.6406 Z " fill="#000000"/><text fill="#000000" font-family="sans-serif" font-size="14" lengthAdjust="spacing" textLength="171" x="215" y="564.8467">address-representations</text><line style="stroke:#181818;stroke-width:0.5;" x1="187" x2="388" y1="576" y2="576"/><text fill="#000000" font-family="sans-serif" font-size="14" lengthAdjust="spacing" textLength="124" x="192" y="592.9951">municipality-name</text><text fill="#000000" font-family="sans-serif" font-size="14" lengthAdjust="spacing" textLength="85" x="192" y="609.292">street-name</text><text fill="#000000" font-family="sans-serif" font-size="14" lengthAdjust="spacing" textLength="82" x="192" y="625.5889">postal-code</text><text fill="#000000" font-family="sans-serif" font-size="14" lengthAdjust="spacing" textLength="85" x="192" y="641.8857">bus-number</text><line style="stroke:#181818;stroke-width:0.5;" x1="187" x2="388" y1="649.1875" y2="649.1875"/></g><!--class postal-items--><g id="elem_postal-items"><rect codeLine="11" fill="#F1F1F1" height="64.2969" id="postal-items" rx="2.5" ry="2.5" style="stroke:#181818;stroke-width:0.5;" width="117" x="440" y="189.5"/><ellipse cx="455" cy="205.5" fill="#ADD1B2" rx="11" ry="11" style="stroke:#181818;stroke-width:1.0;"/><path d="M457.9688,211.1406 Q457.3906,211.4375 456.75,211.5781 Q456.1094,211.7344 455.4063,211.7344 Q452.9063,211.7344 451.5781,210.0938 Q450.2656,208.4375 450.2656,205.3125 Q450.2656,202.1875 451.5781,200.5313 Q452.9063,198.875 455.4063,198.875 Q456.1094,198.875 456.75,199.0313 Q457.4063,199.1875 457.9688,199.4844 L457.9688,202.2031 Q457.3438,201.625 456.75,201.3594 Q456.1563,201.0781 455.5313,201.0781 Q454.1875,201.0781 453.5,202.1563 Q452.8125,203.2188 452.8125,205.3125 Q452.8125,207.4063 453.5,208.4844 Q454.1875,209.5469 455.5313,209.5469 Q456.1563,209.5469 456.75,209.2813 Q457.3438,209 457.9688,208.4219 L457.9688,211.1406 Z " fill="#000000"/><text fill="#000000" font-family="sans-serif" font-size="14" lengthAdjust="spacing" textLength="85" x="469" y="210.3467">postal-items</text><line style="stroke:#181818;stroke-width:0.5;" x1="441" x2="556" y1="221.5" y2="221.5"/><text fill="#000000" font-family="sans-serif" font-size="14" lengthAdjust="spacing" textLength="34" x="446" y="238.4951">body</text><line style="stroke:#181818;stroke-width:0.5;" x1="441" x2="556" y1="245.7969" y2="245.7969"/></g><!--class addresses--><g id="elem_addresses"><rect codeLine="13" fill="#F1F1F1" height="48" id="addresses" rx="2.5" ry="2.5" style="stroke:#181818;stroke-width:0.5;" width="105" x="235" y="734"/><ellipse cx="250" cy="750" fill="#ADD1B2" rx="11" ry="11" style="stroke:#181818;stroke-width:1.0;"/><path d="M252.9688,755.6406 Q252.3906,755.9375 251.75,756.0781 Q251.1094,756.2344 250.4063,756.2344 Q247.9063,756.2344 246.5781,754.5938 Q245.2656,752.9375 245.2656,749.8125 Q245.2656,746.6875 246.5781,745.0313 Q247.9063,743.375 250.4063,743.375 Q251.1094,743.375 251.75,743.5313 Q252.4063,743.6875 252.9688,743.9844 L252.9688,746.7031 Q252.3438,746.125 251.75,745.8594 Q251.1563,745.5781 250.5313,745.5781 Q249.1875,745.5781 248.5,746.6563 Q247.8125,747.7188 247.8125,749.8125 Q247.8125,751.9063 248.5,752.9844 Q249.1875,754.0469 250.5313,754.0469 Q251.1563,754.0469 251.75,753.7813 Q252.3438,753.5 252.9688,752.9219 L252.9688,755.6406 Z " fill="#000000"/><text fill="#000000" font-family="sans-serif" font-size="14" lengthAdjust="spacing" textLength="73" x="264" y="754.8467">addresses</text><line style="stroke:#181818;stroke-width:0.5;" x1="236" x2="339" y1="766" y2="766"/><line style="stroke:#181818;stroke-width:0.5;" x1="236" x2="339" y1="774" y2="774"/></g><!--class location-parcels--><g id="elem_location-parcels"><rect codeLine="15" fill="#F1F1F1" height="96.8906" id="location-parcels" rx="2.5" ry="2.5" style="stroke:#181818;stroke-width:0.5;" width="160" x="415.5" y="7"/><ellipse cx="439.05" cy="23" fill="#ADD1B2" rx="11" ry="11" style="stroke:#181818;stroke-width:1.0;"/><path d="M442.0188,28.6406 Q441.4406,28.9375 440.8,29.0781 Q440.1594,29.2344 439.4563,29.2344 Q436.9563,29.2344 435.6281,27.5938 Q434.3156,25.9375 434.3156,22.8125 Q434.3156,19.6875 435.6281,18.0313 Q436.9563,16.375 439.4563,16.375 Q440.1594,16.375 440.8,16.5313 Q441.4563,16.6875 442.0188,16.9844 L442.0188,19.7031 Q441.3938,19.125 440.8,18.8594 Q440.2063,18.5781 439.5813,18.5781 Q438.2375,18.5781 437.55,19.6563 Q436.8625,20.7188 436.8625,22.8125 Q436.8625,24.9063 437.55,25.9844 Q438.2375,27.0469 439.5813,27.0469 Q440.2063,27.0469 440.8,26.7813 Q441.3938,26.5 442.0188,25.9219 L442.0188,28.6406 Z " fill="#000000"/><text fill="#000000" font-family="sans-serif" font-size="14" lengthAdjust="spacing" textLength="109" x="454.95" y="27.8467">location-parcels</text><line style="stroke:#181818;stroke-width:0.5;" x1="416.5" x2="574.5" y1="39" y2="39"/><text fill="#000000" font-family="sans-serif" font-size="14" lengthAdjust="spacing" textLength="148" x="421.5" y="55.9951">cadastral-department</text><text fill="#000000" font-family="sans-serif" font-size="14" lengthAdjust="spacing" textLength="51" x="421.5" y="72.292">section</text><text fill="#000000" font-family="sans-serif" font-size="14" lengthAdjust="spacing" textLength="54" x="421.5" y="88.5889">number</text><line style="stroke:#181818;stroke-width:0.5;" x1="416.5" x2="574.5" y1="95.8906" y2="95.8906"/></g><!--class cases--><g id="elem_cases"><rect codeLine="25" fill="#F1F1F1" height="64.2969" id="cases" rx="2.5" ry="2.5" style="stroke:#181818;stroke-width:0.5;" width="73" x="307" y="23.5"/><ellipse cx="322" cy="39.5" fill="#ADD1B2" rx="11" ry="11" style="stroke:#181818;stroke-width:1.0;"/><path d="M324.9688,45.1406 Q324.3906,45.4375 323.75,45.5781 Q323.1094,45.7344 322.4063,45.7344 Q319.9063,45.7344 318.5781,44.0938 Q317.2656,42.4375 317.2656,39.3125 Q317.2656,36.1875 318.5781,34.5313 Q319.9063,32.875 322.4063,32.875 Q323.1094,32.875 323.75,33.0313 Q324.4063,33.1875 324.9688,33.4844 L324.9688,36.2031 Q324.3438,35.625 323.75,35.3594 Q323.1563,35.0781 322.5313,35.0781 Q321.1875,35.0781 320.5,36.1563 Q319.8125,37.2188 319.8125,39.3125 Q319.8125,41.4063 320.5,42.4844 Q321.1875,43.5469 322.5313,43.5469 Q323.1563,43.5469 323.75,43.2813 Q324.3438,43 324.9688,42.4219 L324.9688,45.1406 Z " fill="#000000"/><text fill="#000000" font-family="sans-serif" font-size="14" lengthAdjust="spacing" textLength="41" x="336" y="44.3467">cases</text><line style="stroke:#181818;stroke-width:0.5;" x1="308" x2="379" y1="55.5" y2="55.5"/><text fill="#000000" font-family="sans-serif" font-size="14" lengthAdjust="spacing" textLength="53" x="313" y="72.4951">created</text><line style="stroke:#181818;stroke-width:0.5;" x1="308" x2="379" y1="79.7969" y2="79.7969"/></g><!--link persons to identifiers--><g id="link_persons_identifiers"><path codeLine="5" d="M105.73,255.5 C92.43,265.51 79.85,277.71 71.5,292 C54.67,320.79 52.2952,353.6446 53.3452,380.4546 " fill="none" id="persons-to-identifiers" style="stroke:#181818;stroke-width:1.0;"/><polygon fill="#181818" points="53.58,386.45,57.2247,377.3004,53.3843,381.4538,49.2309,377.6134,53.58,386.45" style="stroke:#181818;stroke-width:1.0;"/><polygon fill="#000000" points="74.5669,320.6776,80.7743,313.4722,75.3536,311.1996,74.5669,320.6776" style="stroke:#000000;stroke-width:1.0;"/><text fill="#000000" font-family="sans-serif" font-size="13" lengthAdjust="spacing" textLength="55" x="85.5" y="320.5669">identifier</text><text fill="#000000" font-family="sans-serif" font-size="13" lengthAdjust="spacing" textLength="8" x="44.1528" y="375.3428">1</text></g><!--link persons to contact-points--><g id="link_persons_contact-points"><path codeLine="6" d="M154.03,262.16 C148.76,285.43 145.65,315.07 154.5,340 C158.21,350.46 160.5201,355.6494 167.1201,364.8794 " fill="none" id="persons-to-contact-points" style="stroke:#181818;stroke-width:1.0;"/><polygon fill="#181818" points="170.61,369.76,168.6288,360.1125,167.7017,365.6928,162.1214,364.7657,170.61,369.76" style="stroke:#181818;stroke-width:1.0;"/><polygon fill="#000000" points="160.1321,321.0263,161.904,311.6823,156.0733,312.4253,160.1321,321.0263" style="stroke:#000000;stroke-width:1.0;"/><text fill="#000000" font-family="sans-serif" font-size="13" lengthAdjust="spacing" textLength="92" x="168.5" y="320.5669">contact-points</text><text fill="#000000" font-family="sans-serif" font-size="13" lengthAdjust="spacing" textLength="7" x="156.5239" y="358.9352">*</text></g><!--link designation-objects to address-representations--><g id="link_designation-objects_address-representations"><path codeLine="10" d="M360.99,340.19 C356.55,377.49 345.89,452.79 326.5,514 C323.4,523.8 321.8262,528.4363 317.6462,538.1763 " fill="none" id="designation-objects-to-address-representations" style="stroke:#181818;stroke-width:1.0;"/><polygon fill="#181818" points="315.28,543.69,322.5052,536.997,317.2519,539.0953,315.1536,533.842,315.28,543.69" style="stroke:#181818;stroke-width:1.0;"/><polygon fill="#000000" points="360.4307,423.4507,365.236,415.2434,359.4941,413.9864,360.4307,423.4507" style="stroke:#000000;stroke-width:1.0;"/><text fill="#000000" font-family="sans-serif" font-size="13" lengthAdjust="spacing" textLength="51" x="370.5" y="423.0669">address</text><text fill="#000000" font-family="sans-serif" font-size="13" lengthAdjust="spacing" textLength="8" x="310.1782" y="532.9158">1</text></g><!--link addresses to address-representations--><g id="link_addresses_address-representations"><path codeLine="14" d="M299.95,733.94 C304.19,724.88 308.38,714.21 310.5,704 C313.67,688.73 313.4762,678.0838 310.0562,662.8738 " fill="none" id="addresses-to-address-representations" style="stroke:#181818;stroke-width:1.0;"/><polygon fill="#181818" points="308.74,657.02,306.8118,666.6783,309.8369,661.8982,314.6169,664.9233,308.74,657.02" style="stroke:#181818;stroke-width:1.0;"/><polygon fill="#000000" points="317.204,690.6162,313.0208,699.1574,318.8401,699.985,317.204,690.6162" style="stroke:#000000;stroke-width:1.0;"/><text fill="#000000" font-family="sans-serif" font-size="13" lengthAdjust="spacing" textLength="89" x="325.5" y="700.0669">referenced-by</text><text fill="#000000" font-family="sans-serif" font-size="13" lengthAdjust="spacing" textLength="7" x="304.0129" y="677.286">*</text></g><!--link address-representations to addresses--><g id="link_address-representations_addresses"><path codeLine="24" d="M234.9,657.18 C228.6,666.55 223.13,676.61 219.5,687 C213.02,705.56 221.5333,718.1331 238.0733,730.2031 " fill="none" id="address-representations-to-addresses" style="stroke:#181818;stroke-width:1.0;"/><polygon fill="#181818" points="242.92,733.74,238.0078,725.2036,238.8811,730.7926,233.292,731.6658,242.92,733.74" style="stroke:#181818;stroke-width:1.0;"/><polygon fill="#000000" points="224.7171,700.5617,227.2605,691.3975,221.3882,691.6527,224.7171,700.5617" style="stroke:#000000;stroke-width:1.0;"/><text fill="#000000" font-family="sans-serif" font-size="13" lengthAdjust="spacing" textLength="68" x="233.5" y="700.0669">references</text><text fill="#000000" font-family="sans-serif" font-size="13" lengthAdjust="spacing" textLength="8" x="223.0786" y="723.0816">1</text></g><!--link cases to postal-items--><g id="link_cases_postal-items"><path codeLine="27" d="M376.75,87.57 C383.69,93.36 391.14,99.13 398.5,104 C423.69,120.68 438.5,112.28 459.5,134 C474.39,149.39 482.2918,165.7749 488.3618,183.7649 " fill="none" id="cases-to-postal-items" style="stroke:#181818;stroke-width:1.0;"/><polygon fill="#181818" points="490.28,189.45,491.1928,179.6435,488.6815,184.7124,483.6126,182.2011,490.28,189.45" style="stroke:#181818;stroke-width:1.0;"/><polygon fill="#000000" points="480.2874,145.8307,475.3546,137.6994,471.5172,142.1517,480.2874,145.8307" style="stroke:#000000;stroke-width:1.0;"/><text fill="#000000" font-family="sans-serif" font-size="13" lengthAdjust="spacing" textLength="66" x="485.5" y="147.0669">started-by</text><text fill="#000000" font-family="sans-serif" font-size="13" lengthAdjust="spacing" textLength="8" x="479.7596" y="178.3428">1</text></g><!--link cases to persons--><g id="link_cases_persons"><path codeLine="28" d="M306.83,74.91 C281.5,88.82 248.08,109.65 223.5,134 C209.7,147.67 200.5324,160.0826 190.9224,175.7826 " fill="none" id="cases-to-persons" style="stroke:#181818;stroke-width:1.0;"/><polygon fill="#181818" points="187.79,180.9,195.9002,175.3121,190.4003,176.6355,189.077,171.1356,187.79,180.9" style="stroke:#181818;stroke-width:1.0;"/><polygon fill="#000000" points="224.7283,145.8488,233.4807,142.1278,229.622,137.6939,224.7283,145.8488" style="stroke:#000000;stroke-width:1.0;"/><text fill="#000000" font-family="sans-serif" font-size="13" lengthAdjust="spacing" textLength="62" x="237.5" y="147.0669">submitter</text><text fill="#000000" font-family="sans-serif" font-size="13" lengthAdjust="spacing" textLength="8" x="182.6537" y="170.045">1</text></g><!--link cases to designation-objects--><g id="link_cases_designation-objects"><path codeLine="29" d="M340.03,87.75 C338.63,101.86 337.19,118.75 336.5,134 C333.93,191.13 346.8345,251.5868 355.6045,285.9068 " fill="none" id="cases-to-designation-objects" style="stroke:#181818;stroke-width:1.0;"/><polygon fill="#181818" points="357.09,291.72,358.7372,282.0099,355.8521,286.8757,350.9863,283.9905,357.09,291.72" style="stroke:#181818;stroke-width:1.0;"/><polygon fill="#000000" points="341.8918,147.551,344.1129,138.3035,338.2532,138.764,341.8918,147.551" style="stroke:#000000;stroke-width:1.0;"/><text fill="#000000" font-family="sans-serif" font-size="13" lengthAdjust="spacing" textLength="100" x="350.5" y="147.0669">primary-subject</text><text fill="#000000" font-family="sans-serif" font-size="13" lengthAdjust="spacing" textLength="8" x="346.5526" y="281.0567">1</text></g><!--link contact-points to address-representations--><g id="link_contact-points_address-representations"><path codeLine="34" d="M236.07,467.26 C245.23,490.8 254.1444,513.7383 263.6844,538.2583 " fill="none" id="contact-points-to-address-representations" style="stroke:#181818;stroke-width:1.0;"/><polygon fill="#181818" points="265.86,543.85,266.3245,534.0121,264.047,539.1903,258.8689,536.9128,265.86,543.85" style="stroke:#181818;stroke-width:1.0;"/><polygon fill="#000000" points="259.3125,510.2263,258.7727,500.7311,253.2946,502.8618,259.3125,510.2263" style="stroke:#000000;stroke-width:1.0;"/><text fill="#000000" font-family="sans-serif" font-size="13" lengthAdjust="spacing" textLength="51" x="266.5" y="510.0669">address</text><text fill="#000000" font-family="sans-serif" font-size="13" lengthAdjust="spacing" textLength="8" x="254.7351" y="533.0953">1</text></g><!--SRC=[bLGxSiKW3Enz2iPbPYZIfdYNo0baq4l8y1kG2zy-mkRvRsTI6QHTIQmaPoJXmM6EeF0J8oIWa8GF7Xjb8MVHHamv-Dmsyqby27QHBCIDjS-evTEaeq_AXsZVMz4QZPxCqx2ZC9QhU8Wz_etnAdW2HJ86uscaR2s5LWjTXswk4xtW6hFvya0cU1cw7rHKQ6VMfNhGEc7ECc7aBqSSWME2wbhL4qCciD8Gkb6zzPK9NT332rh9M73BUL7X9c_29oRqYfNlXbLs6zJq2kwfGbiY7qn5JT3SoiI5wT9zSXpy79bP2pQTEttlkaNQgtARkuUutXjb8bX3GnsV6pJNZ4X_uwhgAkXxNDTdMHzn3TlF0Muxi6w-WgcRqxS8dH08zMoPO-tdWc-9vcuUuSkwvRvpXgZkpXvuEiaiI38EqY2PN6phahUhrfpitYJtqOuEZ3rp45gCt-LlSd3-Rwb-0G00]--></g></svg>