<?xml version="1.0" encoding="us-ascii" standalone="no"?><svg xmlns="http://www.w3.org/2000/svg" xmlns:xlink="http://www.w3.org/1999/xlink" contentStyleType="text/css" height="742px" preserveAspectRatio="none" style="width:998px;height:742px;background:#FFFFFF;" version="1.1" viewBox="0 0 998 742" width="998px" zoomAndPan="magnify"><defs/><g><!--class persons--><g id="elem_persons"><rect codeLine="2" fill="#F1F1F1" height="80.5938" id="persons" rx="2.5" ry="2.5" style="stroke:#181818;stroke-width:0.5;" width="121" x="159" y="165"/><ellipse cx="188.4" cy="181" fill="#ADD1B2" rx="11" ry="11" style="stroke:#181818;stroke-width:1.0;"/><path d="M191.3688,186.6406 Q190.7906,186.9375 190.15,187.0781 Q189.5094,187.2344 188.8063,187.2344 Q186.3063,187.2344 184.9781,185.5938 Q183.6656,183.9375 183.6656,180.8125 Q183.6656,177.6875 184.9781,176.0313 Q186.3063,174.375 188.8063,174.375 Q189.5094,174.375 190.15,174.5313 Q190.8063,174.6875 191.3688,174.9844 L191.3688,177.7031 Q190.7438,177.125 190.15,176.8594 Q189.5563,176.5781 188.9313,176.5781 Q187.5875,176.5781 186.9,177.6563 Q186.2125,178.7188 186.2125,180.8125 Q186.2125,182.9063 186.9,183.9844 Q187.5875,185.0469 188.9313,185.0469 Q189.5563,185.0469 190.15,184.7813 Q190.7438,184.5 191.3688,183.9219 L191.3688,186.6406 Z " fill="#000000"/><text fill="#000000" font-family="sans-serif" font-size="14" lengthAdjust="spacing" textLength="57" x="205.6" y="185.8467">persons</text><line style="stroke:#181818;stroke-width:0.5;" x1="160" x2="279" y1="197" y2="197"/><text fill="#000000" font-family="sans-serif" font-size="14" lengthAdjust="spacing" textLength="68" x="165" y="213.9951">last-name</text><text fill="#000000" font-family="sans-serif" font-size="14" lengthAdjust="spacing" textLength="109" x="165" y="230.292">used-first-name</text><line style="stroke:#181818;stroke-width:0.5;" x1="160" x2="279" y1="237.5938" y2="237.5938"/></g><!--class identifiers--><g id="elem_identifiers"><rect codeLine="7" fill="#F1F1F1" height="64.2969" id="identifiers" rx="2.5" ry="2.5" style="stroke:#181818;stroke-width:0.5;" width="99" x="61" y="339.5"/><ellipse cx="76" cy="355.5" fill="#ADD1B2" rx="11" ry="11" style="stroke:#181818;stroke-width:1.0;"/><path d="M78.9688,361.1406 Q78.3906,361.4375 77.75,361.5781 Q77.1094,361.7344 76.4063,361.7344 Q73.9063,361.7344 72.5781,360.0938 Q71.2656,358.4375 71.2656,355.3125 Q71.2656,352.1875 72.5781,350.5313 Q73.9063,348.875 76.4063,348.875 Q77.1094,348.875 77.75,349.0313 Q78.4063,349.1875 78.9688,349.4844 L78.9688,352.2031 Q78.3438,351.625 77.75,351.3594 Q77.1563,351.0781 76.5313,351.0781 Q75.1875,351.0781 74.5,352.1563 Q73.8125,353.2188 73.8125,355.3125 Q73.8125,357.4063 74.5,358.4844 Q75.1875,359.5469 76.5313,359.5469 Q77.1563,359.5469 77.75,359.2813 Q78.3438,359 78.9688,358.4219 L78.9688,361.1406 Z " fill="#000000"/><text fill="#000000" font-family="sans-serif" font-size="14" lengthAdjust="spacing" textLength="67" x="90" y="360.3467">identifiers</text><line style="stroke:#181818;stroke-width:0.5;" x1="62" x2="159" y1="371.5" y2="371.5"/><text fill="#000000" font-family="sans-serif" font-size="14" lengthAdjust="spacing" textLength="59" x="67" y="388.4951">identifier</text><line style="stroke:#181818;stroke-width:0.5;" x1="62" x2="159" y1="395.7969" y2="395.7969"/></g><!--class contact-points--><g id="elem_contact-points"><rect codeLine="44" fill="#F1F1F1" height="96.8906" id="contact-points" rx="2.5" ry="2.5" style="stroke:#181818;stroke-width:0.5;" width="132" x="239.5" y="323"/><ellipse cx="254.5" cy="339" fill="#ADD1B2" rx="11" ry="11" style="stroke:#181818;stroke-width:1.0;"/><path d="M257.4688,344.6406 Q256.8906,344.9375 256.25,345.0781 Q255.6094,345.2344 254.9063,345.2344 Q252.4063,345.2344 251.0781,343.5938 Q249.7656,341.9375 249.7656,338.8125 Q249.7656,335.6875 251.0781,334.0313 Q252.4063,332.375 254.9063,332.375 Q255.6094,332.375 256.25,332.5313 Q256.9063,332.6875 257.4688,332.9844 L257.4688,335.7031 Q256.8438,335.125 256.25,334.8594 Q255.6563,334.5781 255.0313,334.5781 Q253.6875,334.5781 253,335.6563 Q252.3125,336.7188 252.3125,338.8125 Q252.3125,340.9063 253,341.9844 Q253.6875,343.0469 255.0313,343.0469 Q255.6563,343.0469 256.25,342.7813 Q256.8438,342.5 257.4688,341.9219 L257.4688,344.6406 Z " fill="#000000"/><text fill="#000000" font-family="sans-serif" font-size="14" lengthAdjust="spacing" textLength="100" x="268.5" y="343.8467">contact-points</text><line style="stroke:#181818;stroke-width:0.5;" x1="240.5" x2="370.5" y1="355" y2="355"/><text fill="#000000" font-family="sans-serif" font-size="14" lengthAdjust="spacing" textLength="39" x="245.5" y="371.9951">name</text><text fill="#000000" font-family="sans-serif" font-size="14" lengthAdjust="spacing" textLength="36" x="245.5" y="388.292">email</text><text fill="#000000" font-family="sans-serif" font-size="14" lengthAdjust="spacing" textLength="71" x="245.5" y="404.5889">telephone</text><line style="stroke:#181818;stroke-width:0.5;" x1="240.5" x2="370.5" y1="411.8906" y2="411.8906"/></g><!--class designation-objects--><g id="elem_designation-objects"><rect codeLine="9" fill="#F1F1F1" height="48" id="designation-objects" rx="2.5" ry="2.5" style="stroke:#181818;stroke-width:0.5;" width="169" x="493" y="181.5"/><ellipse cx="508" cy="197.5" fill="#ADD1B2" rx="11" ry="11" style="stroke:#181818;stroke-width:1.0;"/><path d="M510.9688,203.1406 Q510.3906,203.4375 509.75,203.5781 Q509.1094,203.7344 508.4063,203.7344 Q505.9063,203.7344 504.5781,202.0938 Q503.2656,200.4375 503.2656,197.3125 Q503.2656,194.1875 504.5781,192.5313 Q505.9063,190.875 508.4063,190.875 Q509.1094,190.875 509.75,191.0313 Q510.4063,191.1875 510.9688,191.4844 L510.9688,194.2031 Q510.3438,193.625 509.75,193.3594 Q509.1563,193.0781 508.5313,193.0781 Q507.1875,193.0781 506.5,194.1563 Q505.8125,195.2188 505.8125,197.3125 Q505.8125,199.4063 506.5,200.4844 Q507.1875,201.5469 508.5313,201.5469 Q509.1563,201.5469 509.75,201.2813 Q510.3438,201 510.9688,200.4219 L510.9688,203.1406 Z " fill="#000000"/><text fill="#000000" font-family="sans-serif" font-size="14" lengthAdjust="spacing" textLength="137" x="522" y="202.3467">designation-objects</text><line style="stroke:#181818;stroke-width:0.5;" x1="494" x2="661" y1="213.5" y2="213.5"/><line style="stroke:#181818;stroke-width:0.5;" x1="494" x2="661" y1="221.5" y2="221.5"/></g><!--class address-representations--><g id="elem_address-representations"><rect codeLine="31" fill="#F1F1F1" height="113.1875" id="address-representations" rx="2.5" ry="2.5" style="stroke:#181818;stroke-width:0.5;" width="203" x="369" y="497"/><ellipse cx="384" cy="513" fill="#ADD1B2" rx="11" ry="11" style="stroke:#181818;stroke-width:1.0;"/><path d="M386.9688,518.6406 Q386.3906,518.9375 385.75,519.0781 Q385.1094,519.2344 384.4063,519.2344 Q381.9063,519.2344 380.5781,517.5938 Q379.2656,515.9375 379.2656,512.8125 Q379.2656,509.6875 380.5781,508.0313 Q381.9063,506.375 384.4063,506.375 Q385.1094,506.375 385.75,506.5313 Q386.4063,506.6875 386.9688,506.9844 L386.9688,509.7031 Q386.3438,509.125 385.75,508.8594 Q385.1563,508.5781 384.5313,508.5781 Q383.1875,508.5781 382.5,509.6563 Q381.8125,510.7188 381.8125,512.8125 Q381.8125,514.9063 382.5,515.9844 Q383.1875,517.0469 384.5313,517.0469 Q385.1563,517.0469 385.75,516.7813 Q386.3438,516.5 386.9688,515.9219 L386.9688,518.6406 Z " fill="#000000"/><text fill="#000000" font-family="sans-serif" font-size="14" lengthAdjust="spacing" textLength="171" x="398" y="517.8467">address-representations</text><line style="stroke:#181818;stroke-width:0.5;" x1="370" x2="571" y1="529" y2="529"/><text fill="#000000" font-family="sans-serif" font-size="14" lengthAdjust="spacing" textLength="124" x="375" y="545.9951">municipality-name</text><text fill="#000000" font-family="sans-serif" font-size="14" lengthAdjust="spacing" textLength="85" x="375" y="562.292">street-name</text><text fill="#000000" font-family="sans-serif" font-size="14" lengthAdjust="spacing" textLength="82" x="375" y="578.5889">postal-code</text><text fill="#000000" font-family="sans-serif" font-size="14" lengthAdjust="spacing" textLength="85" x="375" y="594.8857">bus-number</text><line style="stroke:#181818;stroke-width:0.5;" x1="370" x2="571" y1="602.1875" y2="602.1875"/></g><!--class location-parcels--><g id="elem_location-parcels"><rect codeLine="27" fill="#F1F1F1" height="96.8906" id="location-parcels" rx="2.5" ry="2.5" style="stroke:#181818;stroke-width:0.5;" width="160" x="406.5" y="323"/><ellipse cx="430.05" cy="339" fill="#ADD1B2" rx="11" ry="11" style="stroke:#181818;stroke-width:1.0;"/><path d="M433.0188,344.6406 Q432.4406,344.9375 431.8,345.0781 Q431.1594,345.2344 430.4563,345.2344 Q427.9563,345.2344 426.6281,343.5938 Q425.3156,341.9375 425.3156,338.8125 Q425.3156,335.6875 426.6281,334.0313 Q427.9563,332.375 430.4563,332.375 Q431.1594,332.375 431.8,332.5313 Q432.4563,332.6875 433.0188,332.9844 L433.0188,335.7031 Q432.3938,335.125 431.8,334.8594 Q431.2063,334.5781 430.5813,334.5781 Q429.2375,334.5781 428.55,335.6563 Q427.8625,336.7188 427.8625,338.8125 Q427.8625,340.9063 428.55,341.9844 Q429.2375,343.0469 430.5813,343.0469 Q431.2063,343.0469 431.8,342.7813 Q432.3938,342.5 433.0188,341.9219 L433.0188,344.6406 Z " fill="#000000"/><text fill="#000000" font-family="sans-serif" font-size="14" lengthAdjust="spacing" textLength="109" x="445.95" y="343.8467">location-parcels</text><line style="stroke:#181818;stroke-width:0.5;" x1="407.5" x2="565.5" y1="355" y2="355"/><text fill="#000000" font-family="sans-serif" font-size="14" lengthAdjust="spacing" textLength="148" x="412.5" y="371.9951">cadastral-department</text><text fill="#000000" font-family="sans-serif" font-size="14" lengthAdjust="spacing" textLength="51" x="412.5" y="388.292">section</text><text fill="#000000" font-family="sans-serif" font-size="14" lengthAdjust="spacing" textLength="54" x="412.5" y="404.5889">number</text><line style="stroke:#181818;stroke-width:0.5;" x1="407.5" x2="565.5" y1="411.8906" y2="411.8906"/></g><!--class users--><g id="elem_users"><rect codeLine="12" fill="#F1F1F1" height="80.5938" id="users" rx="2.5" ry="2.5" style="stroke:#181818;stroke-width:0.5;" width="81" x="837" y="7"/><ellipse cx="856.5" cy="23" fill="#ADD1B2" rx="11" ry="11" style="stroke:#181818;stroke-width:1.0;"/><path d="M859.4688,28.6406 Q858.8906,28.9375 858.25,29.0781 Q857.6094,29.2344 856.9063,29.2344 Q854.4063,29.2344 853.0781,27.5938 Q851.7656,25.9375 851.7656,22.8125 Q851.7656,19.6875 853.0781,18.0313 Q854.4063,16.375 856.9063,16.375 Q857.6094,16.375 858.25,16.5313 Q858.9063,16.6875 859.4688,16.9844 L859.4688,19.7031 Q858.8438,19.125 858.25,18.8594 Q857.6563,18.5781 857.0313,18.5781 Q855.6875,18.5781 855,19.6563 Q854.3125,20.7188 854.3125,22.8125 Q854.3125,24.9063 855,25.9844 Q855.6875,27.0469 857.0313,27.0469 Q857.6563,27.0469 858.25,26.7813 Q858.8438,26.5 859.4688,25.9219 L859.4688,28.6406 Z " fill="#000000"/><text fill="#000000" font-family="sans-serif" font-size="14" lengthAdjust="spacing" textLength="39" x="871.5" y="27.8467">users</text><line style="stroke:#181818;stroke-width:0.5;" x1="838" x2="917" y1="39" y2="39"/><text fill="#000000" font-family="sans-serif" font-size="14" lengthAdjust="spacing" textLength="69" x="843" y="55.9951">first-name</text><text fill="#000000" font-family="sans-serif" font-size="14" lengthAdjust="spacing" textLength="68" x="843" y="72.292">last-name</text><line style="stroke:#181818;stroke-width:0.5;" x1="838" x2="917" y1="79.5938" y2="79.5938"/></g><!--class accounts--><g id="elem_accounts"><rect codeLine="19" fill="#F1F1F1" height="80.5938" id="accounts" rx="2.5" ry="2.5" style="stroke:#181818;stroke-width:0.5;" width="96" x="879.5" y="165"/><ellipse cx="894.5" cy="181" fill="#ADD1B2" rx="11" ry="11" style="stroke:#181818;stroke-width:1.0;"/><path d="M897.4688,186.6406 Q896.8906,186.9375 896.25,187.0781 Q895.6094,187.2344 894.9063,187.2344 Q892.4063,187.2344 891.0781,185.5938 Q889.7656,183.9375 889.7656,180.8125 Q889.7656,177.6875 891.0781,176.0313 Q892.4063,174.375 894.9063,174.375 Q895.6094,174.375 896.25,174.5313 Q896.9063,174.6875 897.4688,174.9844 L897.4688,177.7031 Q896.8438,177.125 896.25,176.8594 Q895.6563,176.5781 895.0313,176.5781 Q893.6875,176.5781 893,177.6563 Q892.3125,178.7188 892.3125,180.8125 Q892.3125,182.9063 893,183.9844 Q893.6875,185.0469 895.0313,185.0469 Q895.6563,185.0469 896.25,184.7813 Q896.8438,184.5 897.4688,183.9219 L897.4688,186.6406 Z " fill="#000000"/><text fill="#000000" font-family="sans-serif" font-size="14" lengthAdjust="spacing" textLength="64" x="908.5" y="185.8467">accounts</text><line style="stroke:#181818;stroke-width:0.5;" x1="880.5" x2="974.5" y1="197" y2="197"/><text fill="#000000" font-family="sans-serif" font-size="14" lengthAdjust="spacing" textLength="56" x="885.5" y="213.9951">provider</text><text fill="#000000" font-family="sans-serif" font-size="14" lengthAdjust="spacing" textLength="59" x="885.5" y="230.292">identifier</text><line style="stroke:#181818;stroke-width:0.5;" x1="880.5" x2="974.5" y1="237.5938" y2="237.5938"/></g><!--class admin-units--><g id="elem_admin-units"><rect codeLine="25" fill="#F1F1F1" height="64.2969" id="admin-units" rx="2.5" ry="2.5" style="stroke:#181818;stroke-width:0.5;" width="113" x="697" y="173.5"/><ellipse cx="712" cy="189.5" fill="#ADD1B2" rx="11" ry="11" style="stroke:#181818;stroke-width:1.0;"/><path d="M714.9688,195.1406 Q714.3906,195.4375 713.75,195.5781 Q713.1094,195.7344 712.4063,195.7344 Q709.9063,195.7344 708.5781,194.0938 Q707.2656,192.4375 707.2656,189.3125 Q707.2656,186.1875 708.5781,184.5313 Q709.9063,182.875 712.4063,182.875 Q713.1094,182.875 713.75,183.0313 Q714.4063,183.1875 714.9688,183.4844 L714.9688,186.2031 Q714.3438,185.625 713.75,185.3594 Q713.1563,185.0781 712.5313,185.0781 Q711.1875,185.0781 710.5,186.1563 Q709.8125,187.2188 709.8125,189.3125 Q709.8125,191.4063 710.5,192.4844 Q711.1875,193.5469 712.5313,193.5469 Q713.1563,193.5469 713.75,193.2813 Q714.3438,193 714.9688,192.4219 L714.9688,195.1406 Z " fill="#000000"/><text fill="#000000" font-family="sans-serif" font-size="14" lengthAdjust="spacing" textLength="81" x="726" y="194.3467">admin-units</text><line style="stroke:#181818;stroke-width:0.5;" x1="698" x2="809" y1="205.5" y2="205.5"/><text fill="#000000" font-family="sans-serif" font-size="14" lengthAdjust="spacing" textLength="39" x="703" y="222.4951">name</text><line style="stroke:#181818;stroke-width:0.5;" x1="698" x2="809" y1="229.7969" y2="229.7969"/></g><!--class postal-items--><g id="elem_postal-items"><rect codeLine="17" fill="#F1F1F1" height="64.2969" id="postal-items" rx="2.5" ry="2.5" style="stroke:#181818;stroke-width:0.5;" width="117" x="7" y="173.5"/><ellipse cx="22" cy="189.5" fill="#ADD1B2" rx="11" ry="11" style="stroke:#181818;stroke-width:1.0;"/><path d="M24.9688,195.1406 Q24.3906,195.4375 23.75,195.5781 Q23.1094,195.7344 22.4063,195.7344 Q19.9063,195.7344 18.5781,194.0938 Q17.2656,192.4375 17.2656,189.3125 Q17.2656,186.1875 18.5781,184.5313 Q19.9063,182.875 22.4063,182.875 Q23.1094,182.875 23.75,183.0313 Q24.4063,183.1875 24.9688,183.4844 L24.9688,186.2031 Q24.3438,185.625 23.75,185.3594 Q23.1563,185.0781 22.5313,185.0781 Q21.1875,185.0781 20.5,186.1563 Q19.8125,187.2188 19.8125,189.3125 Q19.8125,191.4063 20.5,192.4844 Q21.1875,193.5469 22.5313,193.5469 Q23.1563,193.5469 23.75,193.2813 Q24.3438,193 24.9688,192.4219 L24.9688,195.1406 Z " fill="#000000"/><text fill="#000000" font-family="sans-serif" font-size="14" lengthAdjust="spacing" textLength="85" x="36" y="194.3467">postal-items</text><line style="stroke:#181818;stroke-width:0.5;" x1="8" x2="123" y1="205.5" y2="205.5"/><text fill="#000000" font-family="sans-serif" font-size="14" lengthAdjust="spacing" textLength="34" x="13" y="222.4951">body</text><line style="stroke:#181818;stroke-width:0.5;" x1="8" x2="123" y1="229.7969" y2="229.7969"/></g><!--class addresses--><g id="elem_addresses"><rect codeLine="23" fill="#F1F1F1" height="48" id="addresses" rx="2.5" ry="2.5" style="stroke:#181818;stroke-width:0.5;" width="105" x="418" y="687"/><ellipse cx="433" cy="703" fill="#ADD1B2" rx="11" ry="11" style="stroke:#181818;stroke-width:1.0;"/><path d="M435.9688,708.6406 Q435.3906,708.9375 434.75,709.0781 Q434.1094,709.2344 433.4063,709.2344 Q430.9063,709.2344 429.5781,707.5938 Q428.2656,705.9375 428.2656,702.8125 Q428.2656,699.6875 429.5781,698.0313 Q430.9063,696.375 433.4063,696.375 Q434.1094,696.375 434.75,696.5313 Q435.4063,696.6875 435.9688,696.9844 L435.9688,699.7031 Q435.3438,699.125 434.75,698.8594 Q434.1563,698.5781 433.5313,698.5781 Q432.1875,698.5781 431.5,699.6563 Q430.8125,700.7188 430.8125,702.8125 Q430.8125,704.9063 431.5,705.9844 Q432.1875,707.0469 433.5313,707.0469 Q434.1563,707.0469 434.75,706.7813 Q435.3438,706.5 435.9688,705.9219 L435.9688,708.6406 Z " fill="#000000"/><text fill="#000000" font-family="sans-serif" font-size="14" lengthAdjust="spacing" textLength="73" x="447" y="707.8467">addresses</text><line style="stroke:#181818;stroke-width:0.5;" x1="419" x2="522" y1="719" y2="719"/><line style="stroke:#181818;stroke-width:0.5;" x1="419" x2="522" y1="727" y2="727"/></g><!--class cases--><g id="elem_cases"><rect codeLine="37" fill="#F1F1F1" height="64.2969" id="cases" rx="2.5" ry="2.5" style="stroke:#181818;stroke-width:0.5;" width="73" x="314" y="15.5"/><ellipse cx="329" cy="31.5" fill="#ADD1B2" rx="11" ry="11" style="stroke:#181818;stroke-width:1.0;"/><path d="M331.9688,37.1406 Q331.3906,37.4375 330.75,37.5781 Q330.1094,37.7344 329.4063,37.7344 Q326.9063,37.7344 325.5781,36.0938 Q324.2656,34.4375 324.2656,31.3125 Q324.2656,28.1875 325.5781,26.5313 Q326.9063,24.875 329.4063,24.875 Q330.1094,24.875 330.75,25.0313 Q331.4063,25.1875 331.9688,25.4844 L331.9688,28.2031 Q331.3438,27.625 330.75,27.3594 Q330.1563,27.0781 329.5313,27.0781 Q328.1875,27.0781 327.5,28.1563 Q326.8125,29.2188 326.8125,31.3125 Q326.8125,33.4063 327.5,34.4844 Q328.1875,35.5469 329.5313,35.5469 Q330.1563,35.5469 330.75,35.2813 Q331.3438,35 331.9688,34.4219 L331.9688,37.1406 Z " fill="#000000"/><text fill="#000000" font-family="sans-serif" font-size="14" lengthAdjust="spacing" textLength="41" x="343" y="36.3467">cases</text><line style="stroke:#181818;stroke-width:0.5;" x1="315" x2="386" y1="47.5" y2="47.5"/><text fill="#000000" font-family="sans-serif" font-size="14" lengthAdjust="spacing" textLength="53" x="320" y="64.4951">created</text><line style="stroke:#181818;stroke-width:0.5;" x1="315" x2="386" y1="71.7969" y2="71.7969"/></g><!--link persons to identifiers--><g id="link_persons_identifiers"><path codeLine="5" d="M161.35,246.35 C151.61,255.17 142.44,265.16 135.5,276 C123.34,295.01 118.0424,313.861 114.8224,333.261 " fill="none" id="persons-to-identifiers" style="stroke:#181818;stroke-width:1.0;"/><polygon fill="#181818" points="113.84,339.18,119.2597,330.9564,114.6587,334.2475,111.3676,329.6465,113.84,339.18" style="stroke:#181818;stroke-width:1.0;"/><polygon fill="#000000" points="138.1401,288.9745,145.0002,282.3873,139.8182,279.6131,138.1401,288.9745" style="stroke:#000000;stroke-width:1.0;"/><text fill="#000000" font-family="sans-serif" font-size="13" lengthAdjust="spacing" textLength="55" x="149.5" y="289.0669">identifier</text><text fill="#000000" font-family="sans-serif" font-size="13" lengthAdjust="spacing" textLength="8" x="105.7101" y="328.3912">1</text></g><!--link persons to contact-points--><g id="link_persons_contact-points"><path codeLine="6" d="M211.45,246.28 C210.18,261.49 211.01,278.63 217.5,293 C222.7,304.5 226.3846,310.6519 235.2846,319.9219 " fill="none" id="persons-to-contact-points" style="stroke:#181818;stroke-width:1.0;"/><polygon fill="#181818" points="239.44,324.25,236.0923,314.9875,235.9772,320.6432,230.3215,320.5281,239.44,324.25" style="stroke:#181818;stroke-width:1.0;"/><polygon fill="#000000" points="224.0396,289.3235,224.0505,279.8129,218.4583,281.6229,224.0396,289.3235" style="stroke:#000000;stroke-width:1.0;"/><text fill="#000000" font-family="sans-serif" font-size="13" lengthAdjust="spacing" textLength="92" x="231.5" y="289.0669">contact-points</text><text fill="#000000" font-family="sans-serif" font-size="13" lengthAdjust="spacing" textLength="7" x="224.3971" y="315.0004">*</text></g><!--link designation-objects to address-representations--><g id="link_designation-objects_address-representations"><path codeLine="10" d="M586.76,229.56 C591.61,242.89 597.05,260.12 599.5,276 C606.68,322.5 615.32,347.93 583.5,420 C571.05,448.21 554.6302,470.5533 534.5102,492.5433 " fill="none" id="designation-objects-to-address-representations" style="stroke:#181818;stroke-width:1.0;"/><polygon fill="#181818" points="530.46,496.97,539.4865,493.0301,533.8352,493.2811,533.5842,487.6298,530.46,496.97" style="stroke:#181818;stroke-width:1.0;"/><polygon fill="#000000" points="610.5256,376.4705,615.1709,368.1716,609.4057,367.0262,610.5256,376.4705" style="stroke:#000000;stroke-width:1.0;"/><text fill="#000000" font-family="sans-serif" font-size="13" lengthAdjust="spacing" textLength="51" x="620.5" y="376.0669">address</text><text fill="#000000" font-family="sans-serif" font-size="13" lengthAdjust="spacing" textLength="8" x="529.6299" y="485.8295">1</text></g><!--link designation-objects to location-parcels--><g id="link_designation-objects_location-parcels"><path codeLine="11" d="M564.65,229.65 C551.28,253.75 532.8609,286.9534 515.8609,317.5934 " fill="none" id="designation-objects-to-location-parcels" style="stroke:#181818;stroke-width:1.0;"/><polygon fill="#181818" points="512.95,322.84,520.8141,316.9108,515.3758,318.4679,513.8187,313.0295,512.95,322.84" style="stroke:#181818;stroke-width:1.0;"/><polygon fill="#000000" points="540.0744,288.9386,547.0323,282.4549,541.8924,279.6035,540.0744,288.9386" style="stroke:#000000;stroke-width:1.0;"/><text fill="#000000" font-family="sans-serif" font-size="13" lengthAdjust="spacing" textLength="39" x="551.5" y="289.0669">parcel</text><text fill="#000000" font-family="sans-serif" font-size="13" lengthAdjust="spacing" textLength="8" x="508.107" y="312.0264">1</text></g><!--link users to accounts--><g id="link_users_accounts"><path codeLine="15" d="M907.38,88.34 C913,97.64 918.16,107.82 921.5,118 C926.38,132.88 928.0644,143.9439 928.6044,158.9639 " fill="none" id="users-to-accounts" style="stroke:#181818;stroke-width:1.0;"/><polygon fill="#181818" points="928.82,164.96,932.4941,155.8221,928.6404,159.9632,924.4992,156.1095,928.82,164.96" style="stroke:#181818;stroke-width:1.0;"/><polygon fill="#000000" points="931.9391,131.3548,932.1503,121.8466,926.5212,123.5383,931.9391,131.3548" style="stroke:#000000;stroke-width:1.0;"/><text fill="#000000" font-family="sans-serif" font-size="13" lengthAdjust="spacing" textLength="51" x="939.5" y="131.0669">account</text><text fill="#000000" font-family="sans-serif" font-size="13" lengthAdjust="spacing" textLength="8" x="920.3594" y="153.8163">1</text></g><!--link accounts to users--><g id="link_accounts_users"><path codeLine="22" d="M887.35,164.8 C880.45,155.71 874.28,145.58 870.5,135 C865.22,120.25 864.5753,109.1444 866.6353,94.1144 " fill="none" id="accounts-to-users" style="stroke:#181818;stroke-width:1.0;"/><polygon fill="#181818" points="867.45,88.17,862.2649,96.5435,866.7711,93.1237,870.1908,97.6298,867.45,88.17" style="stroke:#181818;stroke-width:1.0;"/><polygon fill="#000000" points="874.0939,121.7682,873.8173,131.2747,879.4579,129.6217,874.0939,121.7682" style="stroke:#000000;stroke-width:1.0;"/><text fill="#000000" font-family="sans-serif" font-size="13" lengthAdjust="spacing" textLength="28" x="884.5" y="131.0669">user</text><text fill="#000000" font-family="sans-serif" font-size="13" lengthAdjust="spacing" textLength="8" x="857.2986" y="107.6542">1</text></g><!--link users to admin-units--><g id="link_users_admin-units"><path codeLine="16" d="M836.8,66.8 C815.21,78.5 790.02,95.69 774.5,118 C763.21,134.24 758.782,149.9166 756.352,167.4866 " fill="none" id="users-to-admin-units" style="stroke:#181818;stroke-width:1.0;"/><polygon fill="#181818" points="755.53,173.43,760.7253,165.0629,756.215,168.4771,752.8007,163.9669,755.53,173.43" style="stroke:#181818;stroke-width:1.0;"/><polygon fill="#000000" points="776.3789,130.4727,784.321,125.2407,779.729,121.5717,776.3789,130.4727" style="stroke:#000000;stroke-width:1.0;"/><text fill="#000000" font-family="sans-serif" font-size="13" lengthAdjust="spacing" textLength="69" x="788.5" y="131.0669">admin-unit</text><text fill="#000000" font-family="sans-serif" font-size="13" lengthAdjust="spacing" textLength="8" x="747.1237" y="162.3187">1</text></g><!--link addresses to address-representations--><g id="link_addresses_address-representations"><path codeLine="24" d="M482.95,686.94 C487.19,677.88 491.38,667.21 493.5,657 C496.67,641.73 496.4762,631.0838 493.0562,615.8738 " fill="none" id="addresses-to-address-representations" style="stroke:#181818;stroke-width:1.0;"/><polygon fill="#181818" points="491.74,610.02,489.8118,619.6783,492.8369,614.8982,497.6169,617.9233,491.74,610.02" style="stroke:#181818;stroke-width:1.0;"/><polygon fill="#000000" points="501.204,643.6162,497.0208,652.1574,502.8401,652.985,501.204,643.6162" style="stroke:#000000;stroke-width:1.0;"/><text fill="#000000" font-family="sans-serif" font-size="13" lengthAdjust="spacing" textLength="89" x="509.5" y="653.0669">referenced-by</text><text fill="#000000" font-family="sans-serif" font-size="13" lengthAdjust="spacing" textLength="7" x="487.0129" y="630.286">*</text></g><!--link address-representations to addresses--><g id="link_address-representations_addresses"><path codeLine="36" d="M417.9,610.18 C411.6,619.55 406.13,629.61 402.5,640 C396.02,658.56 404.5333,671.1331 421.0733,683.2031 " fill="none" id="address-representations-to-addresses" style="stroke:#181818;stroke-width:1.0;"/><polygon fill="#181818" points="425.92,686.74,421.0078,678.2036,421.8811,683.7926,416.292,684.6658,425.92,686.74" style="stroke:#181818;stroke-width:1.0;"/><polygon fill="#000000" points="407.7171,653.5617,410.2605,644.3975,404.3882,644.6527,407.7171,653.5617" style="stroke:#000000;stroke-width:1.0;"/><text fill="#000000" font-family="sans-serif" font-size="13" lengthAdjust="spacing" textLength="68" x="416.5" y="653.0669">references</text><text fill="#000000" font-family="sans-serif" font-size="13" lengthAdjust="spacing" textLength="8" x="406.0786" y="676.0816">1</text></g><!--link cases to admin-units--><g id="link_cases_admin-units"><path codeLine="39" d="M387.03,58.38 C431.75,70.8 509.55,93.49 574.5,118 C622.34,136.05 633.59,142.5 679.5,165 C685.12,167.76 685.6189,167.947 691.4089,170.937 " fill="none" id="cases-to-admin-units" style="stroke:#181818;stroke-width:1.0;"/><polygon fill="#181818" points="696.74,173.69,690.5787,166.0064,692.2974,171.3958,686.908,173.1145,696.74,173.69" style="stroke:#181818;stroke-width:1.0;"/><polygon fill="#000000" points="625.1896,128.3006,617.7253,122.4069,615.6867,127.9199,625.1896,128.3006" style="stroke:#000000;stroke-width:1.0;"/><text fill="#000000" font-family="sans-serif" font-size="13" lengthAdjust="spacing" textLength="69" x="629.5" y="131.0669">admin-unit</text><text fill="#000000" font-family="sans-serif" font-size="13" lengthAdjust="spacing" textLength="8" x="680.9551" y="165.7098">1</text></g><!--link cases to postal-items--><g id="link_cases_postal-items"><path codeLine="40" d="M313.91,55.6 C271.59,65 201,84.45 148.5,118 C125.53,132.68 108.1691,150.379 92.9491,168.659 " fill="none" id="cases-to-postal-items" style="stroke:#181818;stroke-width:1.0;"/><polygon fill="#181818" points="89.11,173.27,97.9427,168.9129,92.3093,169.4275,91.7947,163.7941,89.11,173.27" style="stroke:#181818;stroke-width:1.0;"/><polygon fill="#000000" points="149.0488,128.8439,158.4398,127.3402,155.7624,122.1075,149.0488,128.8439" style="stroke:#000000;stroke-width:1.0;"/><text fill="#000000" font-family="sans-serif" font-size="13" lengthAdjust="spacing" textLength="66" x="162.5" y="131.0669">started-by</text><text fill="#000000" font-family="sans-serif" font-size="13" lengthAdjust="spacing" textLength="8" x="84.9707" y="162.4989">1</text></g><!--link cases to persons--><g id="link_cases_persons"><path codeLine="41" d="M313.96,65.34 C291.88,77.21 264.75,95.08 247.5,118 C237.25,131.62 232.2028,143.3417 228.0228,159.0517 " fill="none" id="cases-to-persons" style="stroke:#181818;stroke-width:1.0;"/><polygon fill="#181818" points="226.48,164.85,232.6597,157.1811,227.7656,160.0181,224.9286,155.1241,226.48,164.85" style="stroke:#181818;stroke-width:1.0;"/><polygon fill="#000000" points="249.1206,130.2515,257.4,125.5714,253.0679,121.5988,249.1206,130.2515" style="stroke:#000000;stroke-width:1.0;"/><text fill="#000000" font-family="sans-serif" font-size="13" lengthAdjust="spacing" textLength="62" x="261.5" y="131.0669">submitter</text><text fill="#000000" font-family="sans-serif" font-size="13" lengthAdjust="spacing" textLength="8" x="218.9736" y="153.9867">1</text></g><!--link cases to designation-objects--><g id="link_cases_designation-objects"><path codeLine="42" d="M385.27,79.7 C405.18,96.89 431,118.11 455.5,135 C480.19,152.02 504.043,165.8646 527.643,178.6346 " fill="none" id="cases-to-designation-objects" style="stroke:#181818;stroke-width:1.0;"/><polygon fill="#181818" points="532.92,181.49,526.9081,173.6889,528.5225,179.1105,523.1009,180.7249,532.92,181.49" style="stroke:#181818;stroke-width:1.0;"/><polygon fill="#000000" points="464.606,129.4196,458.8553,121.8447,455.5011,126.6715,464.606,129.4196" style="stroke:#000000;stroke-width:1.0;"/><text fill="#000000" font-family="sans-serif" font-size="13" lengthAdjust="spacing" textLength="100" x="469.5" y="131.0669">primary-subject</text><text fill="#000000" font-family="sans-serif" font-size="13" lengthAdjust="spacing" textLength="8" x="512.4714" y="170.4995">1</text></g><!--link cases to contact-points--><g id="link_cases_contact-points"><path codeLine="43" d="M349.68,79.65 C347.99,126.38 343,217.23 328.5,293 C326.63,302.79 325.6574,307.3378 322.8774,317.1378 " fill="none" id="cases-to-contact-points" style="stroke:#181818;stroke-width:1.0;"/><polygon fill="#181818" points="321.24,322.91,327.5443,315.3433,322.6045,318.0998,319.848,313.16,321.24,322.91" style="stroke:#181818;stroke-width:1.0;"/><polygon fill="#000000" points="349.9393,210.5349,353.874,201.8764,348.0333,201.2172,349.9393,210.5349" style="stroke:#000000;stroke-width:1.0;"/><text fill="#000000" font-family="sans-serif" font-size="13" lengthAdjust="spacing" textLength="92" x="359.5" y="210.0669">contact-points</text><text fill="#000000" font-family="sans-serif" font-size="13" lengthAdjust="spacing" textLength="7" x="315.9613" y="312.1063">*</text></g><!--link contact-points to address-representations--><g id="link_contact-points_address-representations"><path codeLine="48" d="M349.28,420.26 C370.86,443.8 392.9563,467.9065 415.4263,492.4265 " fill="none" id="contact-points-to-address-representations" style="stroke:#181818;stroke-width:1.0;"/><polygon fill="#181818" points="419.48,496.85,416.3485,487.5123,416.1019,493.1637,410.4504,492.9172,419.48,496.85" style="stroke:#181818;stroke-width:1.0;"/><polygon fill="#000000" points="396.8784,462.2523,392.9333,453.5986,388.6002,457.5702,396.8784,462.2523" style="stroke:#000000;stroke-width:1.0;"/><text fill="#000000" font-family="sans-serif" font-size="13" lengthAdjust="spacing" textLength="51" x="402.5" y="463.0669">address</text><text fill="#000000" font-family="sans-serif" font-size="13" lengthAdjust="spacing" textLength="8" x="404.7744" y="486.0953">1</text></g><!--SRC=[bLLBRiGW3Dtd52ZBIYowxM8kqHCGyBHKuIDmAkNsDOGXv3DfkmeyFuC_3oS2CYiCH2yal8CNGQ0Bp3eBdHn5ZApt4AApiU_gYhqnCY5FZXjqYg3uNOUZZVCRwrzxrci55lLTao5vh5jsOtl-2_6bioWaSk-qnUooHP9R2RGzkdj-qOEk8EeFAr0xoztm1HAJsncwHY-K2X0Z3-3fIoTcOhwWc78QruUCJYucghQ4CNilooOPAcLEO_aIeorh1Pis56mDLKetbPALTOxjm5D6MpvPNQXrsmJZNKGnSerWiWxQBVaCJiqFQhsssqJWW_kc5eGjsZIbmMjeDSsqQC8ffOPyILslchdeKe0x1B2IT3hCcoFNAdJxckG25-AXUTrfFwLGr9f0LLBfKQ6XACwPaTH1qBdHJcPO5Viih-ugOqDfIEt5g74kKhbWKym0-3klI40wTSqRfiXB4izf- -S5srQrRroAfUtBDnKwW41G5VcRhW_ilQHf5x2Av4XVPrwS1gCHom3R4qydGNeEseWmSt9EsC7rdvDlH-rEV9UE7d4mGezd1eGH_6Vw3noC_nk7Fm00]--></g></svg>