<?xml version="1.0" encoding="us-ascii" standalone="no"?><svg xmlns="http://www.w3.org/2000/svg" xmlns:xlink="http://www.w3.org/1999/xlink" contentStyleType="text/css" height="725px" preserveAspectRatio="none" style="width:767px;height:725px;background:#FFFFFF;" version="1.1" viewBox="0 0 767 725" width="767px" zoomAndPan="magnify"><defs/><g><!--class persons--><g id="elem_persons"><rect codeLine="2" fill="#F1F1F1" height="80.5938" id="persons" rx="2.5" ry="2.5" style="stroke:#181818;stroke-width:0.5;" width="121" x="105" y="148"/><ellipse cx="134.4" cy="164" fill="#ADD1B2" rx="11" ry="11" style="stroke:#181818;stroke-width:1.0;"/><path d="M137.3688,169.6406 Q136.7906,169.9375 136.15,170.0781 Q135.5094,170.2344 134.8063,170.2344 Q132.3063,170.2344 130.9781,168.5938 Q129.6656,166.9375 129.6656,163.8125 Q129.6656,160.6875 130.9781,159.0313 Q132.3063,157.375 134.8063,157.375 Q135.5094,157.375 136.15,157.5313 Q136.8063,157.6875 137.3688,157.9844 L137.3688,160.7031 Q136.7438,160.125 136.15,159.8594 Q135.5563,159.5781 134.9313,159.5781 Q133.5875,159.5781 132.9,160.6563 Q132.2125,161.7188 132.2125,163.8125 Q132.2125,165.9063 132.9,166.9844 Q133.5875,168.0469 134.9313,168.0469 Q135.5563,168.0469 136.15,167.7813 Q136.7438,167.5 137.3688,166.9219 L137.3688,169.6406 Z " fill="#000000"/><text fill="#000000" font-family="sans-serif" font-size="14" lengthAdjust="spacing" textLength="57" x="151.6" y="168.8467">persons</text><line style="stroke:#181818;stroke-width:0.5;" x1="106" x2="225" y1="180" y2="180"/><text fill="#000000" font-family="sans-serif" font-size="14" lengthAdjust="spacing" textLength="68" x="111" y="196.9951">last-name</text><text fill="#000000" font-family="sans-serif" font-size="14" lengthAdjust="spacing" textLength="109" x="111" y="213.292">used-first-name</text><line style="stroke:#181818;stroke-width:0.5;" x1="106" x2="225" y1="220.5938" y2="220.5938"/></g><!--class identifiers--><g id="elem_identifiers"><rect codeLine="7" fill="#F1F1F1" height="64.2969" id="identifiers" rx="2.5" ry="2.5" style="stroke:#181818;stroke-width:0.5;" width="99" x="7" y="322.5"/><ellipse cx="22" cy="338.5" fill="#ADD1B2" rx="11" ry="11" style="stroke:#181818;stroke-width:1.0;"/><path d="M24.9688,344.1406 Q24.3906,344.4375 23.75,344.5781 Q23.1094,344.7344 22.4063,344.7344 Q19.9063,344.7344 18.5781,343.0938 Q17.2656,341.4375 17.2656,338.3125 Q17.2656,335.1875 18.5781,333.5313 Q19.9063,331.875 22.4063,331.875 Q23.1094,331.875 23.75,332.0313 Q24.4063,332.1875 24.9688,332.4844 L24.9688,335.2031 Q24.3438,334.625 23.75,334.3594 Q23.1563,334.0781 22.5313,334.0781 Q21.1875,334.0781 20.5,335.1563 Q19.8125,336.2188 19.8125,338.3125 Q19.8125,340.4063 20.5,341.4844 Q21.1875,342.5469 22.5313,342.5469 Q23.1563,342.5469 23.75,342.2813 Q24.3438,342 24.9688,341.4219 L24.9688,344.1406 Z " fill="#000000"/><text fill="#000000" font-family="sans-serif" font-size="14" lengthAdjust="spacing" textLength="67" x="36" y="343.3467">identifiers</text><line style="stroke:#181818;stroke-width:0.5;" x1="8" x2="105" y1="354.5" y2="354.5"/><text fill="#000000" font-family="sans-serif" font-size="14" lengthAdjust="spacing" textLength="59" x="13" y="371.4951">identifier</text><line style="stroke:#181818;stroke-width:0.5;" x1="8" x2="105" y1="378.7969" y2="378.7969"/></g><!--class contact-points--><g id="elem_contact-points"><rect codeLine="32" fill="#F1F1F1" height="96.8906" id="contact-points" rx="2.5" ry="2.5" style="stroke:#181818;stroke-width:0.5;" width="132" x="185.5" y="306"/><ellipse cx="200.5" cy="322" fill="#ADD1B2" rx="11" ry="11" style="stroke:#181818;stroke-width:1.0;"/><path d="M203.4688,327.6406 Q202.8906,327.9375 202.25,328.0781 Q201.6094,328.2344 200.9063,328.2344 Q198.4063,328.2344 197.0781,326.5938 Q195.7656,324.9375 195.7656,321.8125 Q195.7656,318.6875 197.0781,317.0313 Q198.4063,315.375 200.9063,315.375 Q201.6094,315.375 202.25,315.5313 Q202.9063,315.6875 203.4688,315.9844 L203.4688,318.7031 Q202.8438,318.125 202.25,317.8594 Q201.6563,317.5781 201.0313,317.5781 Q199.6875,317.5781 199,318.6563 Q198.3125,319.7188 198.3125,321.8125 Q198.3125,323.9063 199,324.9844 Q199.6875,326.0469 201.0313,326.0469 Q201.6563,326.0469 202.25,325.7813 Q202.8438,325.5 203.4688,324.9219 L203.4688,327.6406 Z " fill="#000000"/><text fill="#000000" font-family="sans-serif" font-size="14" lengthAdjust="spacing" textLength="100" x="214.5" y="326.8467">contact-points</text><line style="stroke:#181818;stroke-width:0.5;" x1="186.5" x2="316.5" y1="338" y2="338"/><text fill="#000000" font-family="sans-serif" font-size="14" lengthAdjust="spacing" textLength="39" x="191.5" y="354.9951">name</text><text fill="#000000" font-family="sans-serif" font-size="14" lengthAdjust="spacing" textLength="36" x="191.5" y="371.292">email</text><text fill="#000000" font-family="sans-serif" font-size="14" lengthAdjust="spacing" textLength="71" x="191.5" y="387.5889">telephone</text><line style="stroke:#181818;stroke-width:0.5;" x1="186.5" x2="316.5" y1="394.8906" y2="394.8906"/></g><!--class designation-objects--><g id="elem_designation-objects"><rect codeLine="9" fill="#F1F1F1" height="48" id="designation-objects" rx="2.5" ry="2.5" style="stroke:#181818;stroke-width:0.5;" width="169" x="439" y="164.5"/><ellipse cx="454" cy="180.5" fill="#ADD1B2" rx="11" ry="11" style="stroke:#181818;stroke-width:1.0;"/><path d="M456.9688,186.1406 Q456.3906,186.4375 455.75,186.5781 Q455.1094,186.7344 454.4063,186.7344 Q451.9063,186.7344 450.5781,185.0938 Q449.2656,183.4375 449.2656,180.3125 Q449.2656,177.1875 450.5781,175.5313 Q451.9063,173.875 454.4063,173.875 Q455.1094,173.875 455.75,174.0313 Q456.4063,174.1875 456.9688,174.4844 L456.9688,177.2031 Q456.3438,176.625 455.75,176.3594 Q455.1563,176.0781 454.5313,176.0781 Q453.1875,176.0781 452.5,177.1563 Q451.8125,178.2188 451.8125,180.3125 Q451.8125,182.4063 452.5,183.4844 Q453.1875,184.5469 454.5313,184.5469 Q455.1563,184.5469 455.75,184.2813 Q456.3438,184 456.9688,183.4219 L456.9688,186.1406 Z " fill="#000000"/><text fill="#000000" font-family="sans-serif" font-size="14" lengthAdjust="spacing" textLength="137" x="468" y="185.3467">designation-objects</text><line style="stroke:#181818;stroke-width:0.5;" x1="440" x2="607" y1="196.5" y2="196.5"/><line style="stroke:#181818;stroke-width:0.5;" x1="440" x2="607" y1="204.5" y2="204.5"/></g><!--class address-representations--><g id="elem_address-representations"><rect codeLine="20" fill="#F1F1F1" height="113.1875" id="address-representations" rx="2.5" ry="2.5" style="stroke:#181818;stroke-width:0.5;" width="203" x="218" y="480"/><ellipse cx="233" cy="496" fill="#ADD1B2" rx="11" ry="11" style="stroke:#181818;stroke-width:1.0;"/><path d="M235.9688,501.6406 Q235.3906,501.9375 234.75,502.0781 Q234.1094,502.2344 233.4063,502.2344 Q230.9063,502.2344 229.5781,500.5938 Q228.2656,498.9375 228.2656,495.8125 Q228.2656,492.6875 229.5781,491.0313 Q230.9063,489.375 233.4063,489.375 Q234.1094,489.375 234.75,489.5313 Q235.4063,489.6875 235.9688,489.9844 L235.9688,492.7031 Q235.3438,492.125 234.75,491.8594 Q234.1563,491.5781 233.5313,491.5781 Q232.1875,491.5781 231.5,492.6563 Q230.8125,493.7188 230.8125,495.8125 Q230.8125,497.9063 231.5,498.9844 Q232.1875,500.0469 233.5313,500.0469 Q234.1563,500.0469 234.75,499.7813 Q235.3438,499.5 235.9688,498.9219 L235.9688,501.6406 Z " fill="#000000"/><text fill="#000000" font-family="sans-serif" font-size="14" lengthAdjust="spacing" textLength="171" x="247" y="500.8467">address-representations</text><line style="stroke:#181818;stroke-width:0.5;" x1="219" x2="420" y1="512" y2="512"/><text fill="#000000" font-family="sans-serif" font-size="14" lengthAdjust="spacing" textLength="124" x="224" y="528.9951">municipality-name</text><text fill="#000000" font-family="sans-serif" font-size="14" lengthAdjust="spacing" textLength="85" x="224" y="545.292">street-name</text><text fill="#000000" font-family="sans-serif" font-size="14" lengthAdjust="spacing" textLength="82" x="224" y="561.5889">postal-code</text><text fill="#000000" font-family="sans-serif" font-size="14" lengthAdjust="spacing" textLength="85" x="224" y="577.8857">bus-number</text><line style="stroke:#181818;stroke-width:0.5;" x1="219" x2="420" y1="585.1875" y2="585.1875"/></g><!--class location-parcels--><g id="elem_location-parcels"><rect codeLine="16" fill="#F1F1F1" height="96.8906" id="location-parcels" rx="2.5" ry="2.5" style="stroke:#181818;stroke-width:0.5;" width="160" x="488.5" y="306"/><ellipse cx="512.05" cy="322" fill="#ADD1B2" rx="11" ry="11" style="stroke:#181818;stroke-width:1.0;"/><path d="M515.0188,327.6406 Q514.4406,327.9375 513.8,328.0781 Q513.1594,328.2344 512.4563,328.2344 Q509.9562,328.2344 508.6281,326.5938 Q507.3156,324.9375 507.3156,321.8125 Q507.3156,318.6875 508.6281,317.0313 Q509.9562,315.375 512.4563,315.375 Q513.1594,315.375 513.8,315.5313 Q514.4563,315.6875 515.0188,315.9844 L515.0188,318.7031 Q514.3938,318.125 513.8,317.8594 Q513.2063,317.5781 512.5813,317.5781 Q511.2375,317.5781 510.55,318.6563 Q509.8625,319.7188 509.8625,321.8125 Q509.8625,323.9063 510.55,324.9844 Q511.2375,326.0469 512.5813,326.0469 Q513.2063,326.0469 513.8,325.7813 Q514.3938,325.5 515.0188,324.9219 L515.0188,327.6406 Z " fill="#000000"/><text fill="#000000" font-family="sans-serif" font-size="14" lengthAdjust="spacing" textLength="109" x="527.95" y="326.8467">location-parcels</text><line style="stroke:#181818;stroke-width:0.5;" x1="489.5" x2="647.5" y1="338" y2="338"/><text fill="#000000" font-family="sans-serif" font-size="14" lengthAdjust="spacing" textLength="148" x="494.5" y="354.9951">cadastral-department</text><text fill="#000000" font-family="sans-serif" font-size="14" lengthAdjust="spacing" textLength="51" x="494.5" y="371.292">section</text><text fill="#000000" font-family="sans-serif" font-size="14" lengthAdjust="spacing" textLength="54" x="494.5" y="387.5889">number</text><line style="stroke:#181818;stroke-width:0.5;" x1="489.5" x2="647.5" y1="394.8906" y2="394.8906"/></g><!--class postal-items--><g id="elem_postal-items"><rect codeLine="12" fill="#F1F1F1" height="64.2969" id="postal-items" rx="2.5" ry="2.5" style="stroke:#181818;stroke-width:0.5;" width="117" x="643" y="156.5"/><ellipse cx="658" cy="172.5" fill="#ADD1B2" rx="11" ry="11" style="stroke:#181818;stroke-width:1.0;"/><path d="M660.9688,178.1406 Q660.3906,178.4375 659.75,178.5781 Q659.1094,178.7344 658.4063,178.7344 Q655.9063,178.7344 654.5781,177.0938 Q653.2656,175.4375 653.2656,172.3125 Q653.2656,169.1875 654.5781,167.5313 Q655.9063,165.875 658.4063,165.875 Q659.1094,165.875 659.75,166.0313 Q660.4063,166.1875 660.9688,166.4844 L660.9688,169.2031 Q660.3438,168.625 659.75,168.3594 Q659.1563,168.0781 658.5313,168.0781 Q657.1875,168.0781 656.5,169.1563 Q655.8125,170.2188 655.8125,172.3125 Q655.8125,174.4063 656.5,175.4844 Q657.1875,176.5469 658.5313,176.5469 Q659.1563,176.5469 659.75,176.2813 Q660.3438,176 660.9688,175.4219 L660.9688,178.1406 Z " fill="#000000"/><text fill="#000000" font-family="sans-serif" font-size="14" lengthAdjust="spacing" textLength="85" x="672" y="177.3467">postal-items</text><line style="stroke:#181818;stroke-width:0.5;" x1="644" x2="759" y1="188.5" y2="188.5"/><text fill="#000000" font-family="sans-serif" font-size="14" lengthAdjust="spacing" textLength="34" x="649" y="205.4951">body</text><line style="stroke:#181818;stroke-width:0.5;" x1="644" x2="759" y1="212.7969" y2="212.7969"/></g><!--class addresses--><g id="elem_addresses"><rect codeLine="14" fill="#F1F1F1" height="48" id="addresses" rx="2.5" ry="2.5" style="stroke:#181818;stroke-width:0.5;" width="105" x="267" y="670"/><ellipse cx="282" cy="686" fill="#ADD1B2" rx="11" ry="11" style="stroke:#181818;stroke-width:1.0;"/><path d="M284.9688,691.6406 Q284.3906,691.9375 283.75,692.0781 Q283.1094,692.2344 282.4063,692.2344 Q279.9063,692.2344 278.5781,690.5938 Q277.2656,688.9375 277.2656,685.8125 Q277.2656,682.6875 278.5781,681.0313 Q279.9063,679.375 282.4063,679.375 Q283.1094,679.375 283.75,679.5313 Q284.4063,679.6875 284.9688,679.9844 L284.9688,682.7031 Q284.3438,682.125 283.75,681.8594 Q283.1563,681.5781 282.5313,681.5781 Q281.1875,681.5781 280.5,682.6563 Q279.8125,683.7188 279.8125,685.8125 Q279.8125,687.9063 280.5,688.9844 Q281.1875,690.0469 282.5313,690.0469 Q283.1563,690.0469 283.75,689.7813 Q284.3438,689.5 284.9688,688.9219 L284.9688,691.6406 Z " fill="#000000"/><text fill="#000000" font-family="sans-serif" font-size="14" lengthAdjust="spacing" textLength="73" x="296" y="690.8467">addresses</text><line style="stroke:#181818;stroke-width:0.5;" x1="268" x2="371" y1="702" y2="702"/><line style="stroke:#181818;stroke-width:0.5;" x1="268" x2="371" y1="710" y2="710"/></g><!--class cases--><g id="elem_cases"><rect codeLine="26" fill="#F1F1F1" height="64.2969" id="cases" rx="2.5" ry="2.5" style="stroke:#181818;stroke-width:0.5;" width="73" x="373" y="7"/><ellipse cx="388" cy="23" fill="#ADD1B2" rx="11" ry="11" style="stroke:#181818;stroke-width:1.0;"/><path d="M390.9688,28.6406 Q390.3906,28.9375 389.75,29.0781 Q389.1094,29.2344 388.4063,29.2344 Q385.9063,29.2344 384.5781,27.5938 Q383.2656,25.9375 383.2656,22.8125 Q383.2656,19.6875 384.5781,18.0313 Q385.9063,16.375 388.4063,16.375 Q389.1094,16.375 389.75,16.5313 Q390.4063,16.6875 390.9688,16.9844 L390.9688,19.7031 Q390.3438,19.125 389.75,18.8594 Q389.1563,18.5781 388.5313,18.5781 Q387.1875,18.5781 386.5,19.6563 Q385.8125,20.7188 385.8125,22.8125 Q385.8125,24.9063 386.5,25.9844 Q387.1875,27.0469 388.5313,27.0469 Q389.1563,27.0469 389.75,26.7813 Q390.3438,26.5 390.9688,25.9219 L390.9688,28.6406 Z " fill="#000000"/><text fill="#000000" font-family="sans-serif" font-size="14" lengthAdjust="spacing" textLength="41" x="402" y="27.8467">cases</text><line style="stroke:#181818;stroke-width:0.5;" x1="374" x2="445" y1="39" y2="39"/><text fill="#000000" font-family="sans-serif" font-size="14" lengthAdjust="spacing" textLength="53" x="379" y="55.9951">created</text><line style="stroke:#181818;stroke-width:0.5;" x1="374" x2="445" y1="63.2969" y2="63.2969"/></g><!--link persons to identifiers--><g id="link_persons_identifiers"><path codeLine="5" d="M107.35,229.35 C97.61,238.17 88.44,248.16 81.5,259 C69.34,278.01 64.0424,296.861 60.8224,316.261 " fill="none" id="persons-to-identifiers" style="stroke:#181818;stroke-width:1.0;"/><polygon fill="#181818" points="59.84,322.18,65.2597,313.9564,60.6587,317.2475,57.3676,312.6465,59.84,322.18" style="stroke:#181818;stroke-width:1.0;"/><polygon fill="#000000" points="84.1401,271.9745,91.0002,265.3873,85.8182,262.6131,84.1401,271.9745" style="stroke:#000000;stroke-width:1.0;"/><text fill="#000000" font-family="sans-serif" font-size="13" lengthAdjust="spacing" textLength="55" x="95.5" y="272.0669">identifier</text><text fill="#000000" font-family="sans-serif" font-size="13" lengthAdjust="spacing" textLength="8" x="51.7101" y="311.3912">1</text></g><!--link persons to contact-points--><g id="link_persons_contact-points"><path codeLine="6" d="M157.45,229.28 C156.18,244.49 157.01,261.63 163.5,276 C168.7,287.5 172.3846,293.6519 181.2846,302.9219 " fill="none" id="persons-to-contact-points" style="stroke:#181818;stroke-width:1.0;"/><polygon fill="#181818" points="185.44,307.25,182.0923,297.9875,181.9772,303.6432,176.3215,303.5281,185.44,307.25" style="stroke:#181818;stroke-width:1.0;"/><polygon fill="#000000" points="170.0396,272.3235,170.0505,262.8129,164.4583,264.6229,170.0396,272.3235" style="stroke:#000000;stroke-width:1.0;"/><text fill="#000000" font-family="sans-serif" font-size="13" lengthAdjust="spacing" textLength="92" x="177.5" y="272.0669">contact-points</text><text fill="#000000" font-family="sans-serif" font-size="13" lengthAdjust="spacing" textLength="7" x="170.3971" y="298.0004">*</text></g><!--link designation-objects to address-representations--><g id="link_designation-objects_address-representations"><path codeLine="10" d="M492.43,212.58 C465.59,234.03 427.6,268.28 404.5,306 C369.48,363.18 383.76,387.49 359.5,450 C355.7,459.78 353.7849,464.5442 349.3249,474.3942 " fill="none" id="designation-objects-to-address-representations" style="stroke:#181818;stroke-width:1.0;"/><polygon fill="#181818" points="346.85,479.86,354.2062,473.3112,348.9124,475.3052,346.9184,470.0114,346.85,479.86" style="stroke:#181818;stroke-width:1.0;"/><polygon fill="#000000" points="407.1019,358.9538,414.0189,352.4265,408.8613,349.6074,407.1019,358.9538" style="stroke:#000000;stroke-width:1.0;"/><text fill="#000000" font-family="sans-serif" font-size="13" lengthAdjust="spacing" textLength="51" x="418.5" y="359.0669">address</text><text fill="#000000" font-family="sans-serif" font-size="13" lengthAdjust="spacing" textLength="8" x="341.6958" y="469.1065">1</text></g><!--link designation-objects to location-parcels--><g id="link_designation-objects_location-parcels"><path codeLine="11" d="M529.85,212.65 C536.47,236.75 545.4219,269.414 553.8319,300.054 " fill="none" id="designation-objects-to-location-parcels" style="stroke:#181818;stroke-width:1.0;"/><polygon fill="#181818" points="555.42,305.84,556.8951,296.1022,554.0966,301.0183,549.1805,298.2197,555.42,305.84" style="stroke:#181818;stroke-width:1.0;"/><polygon fill="#000000" points="551.823,272.3882,552.2638,262.8879,546.5955,264.4431,551.823,272.3882" style="stroke:#000000;stroke-width:1.0;"/><text fill="#000000" font-family="sans-serif" font-size="13" lengthAdjust="spacing" textLength="39" x="559.5" y="272.0669">parcel</text><text fill="#000000" font-family="sans-serif" font-size="13" lengthAdjust="spacing" textLength="8" x="545.0181" y="295.0264">1</text></g><!--link addresses to address-representations--><g id="link_addresses_address-representations"><path codeLine="15" d="M331.95,669.94 C336.19,660.88 340.38,650.21 342.5,640 C345.67,624.73 345.4762,614.0838 342.0562,598.8738 " fill="none" id="addresses-to-address-representations" style="stroke:#181818;stroke-width:1.0;"/><polygon fill="#181818" points="340.74,593.02,338.8118,602.6783,341.8369,597.8982,346.6169,600.9233,340.74,593.02" style="stroke:#181818;stroke-width:1.0;"/><polygon fill="#000000" points="350.204,626.6162,346.0208,635.1574,351.8401,635.985,350.204,626.6162" style="stroke:#000000;stroke-width:1.0;"/><text fill="#000000" font-family="sans-serif" font-size="13" lengthAdjust="spacing" textLength="89" x="358.5" y="636.0669">referenced-by</text><text fill="#000000" font-family="sans-serif" font-size="13" lengthAdjust="spacing" textLength="7" x="336.0129" y="613.286">*</text></g><!--link address-representations to addresses--><g id="link_address-representations_addresses"><path codeLine="25" d="M266.9,593.18 C260.6,602.55 255.13,612.61 251.5,623 C245.02,641.56 253.5333,654.1331 270.0733,666.2031 " fill="none" id="address-representations-to-addresses" style="stroke:#181818;stroke-width:1.0;"/><polygon fill="#181818" points="274.92,669.74,270.0078,661.2036,270.8811,666.7926,265.292,667.6658,274.92,669.74" style="stroke:#181818;stroke-width:1.0;"/><polygon fill="#000000" points="256.7171,636.5617,259.2605,627.3975,253.3882,627.6527,256.7171,636.5617" style="stroke:#000000;stroke-width:1.0;"/><text fill="#000000" font-family="sans-serif" font-size="13" lengthAdjust="spacing" textLength="68" x="265.5" y="636.0669">references</text><text fill="#000000" font-family="sans-serif" font-size="13" lengthAdjust="spacing" textLength="8" x="255.0786" y="659.0816">1</text></g><!--link cases to postal-items--><g id="link_cases_postal-items"><path codeLine="28" d="M446.12,48.6 C483.56,58.24 542.68,75.9 589.5,101 C617.65,116.09 641.5255,134.2657 662.7055,152.3357 " fill="none" id="cases-to-postal-items" style="stroke:#181818;stroke-width:1.0;"/><polygon fill="#181818" points="667.27,156.23,663.0194,147.3456,663.4662,152.9848,657.8271,153.4316,667.27,156.23" style="stroke:#181818;stroke-width:1.0;"/><polygon fill="#000000" points="625.0094,111.7262,618.1213,105.1685,615.5823,110.4696,625.0094,111.7262" style="stroke:#000000;stroke-width:1.0;"/><text fill="#000000" font-family="sans-serif" font-size="13" lengthAdjust="spacing" textLength="66" x="629.5" y="114.0669">started-by</text><text fill="#000000" font-family="sans-serif" font-size="13" lengthAdjust="spacing" textLength="8" x="651.7435" y="145.451">1</text></g><!--link cases to persons--><g id="link_cases_persons"><path codeLine="29" d="M372.66,40.27 C325.05,42.63 242.48,53.84 193.5,101 C180.77,113.26 175.1555,125.5028 171.3655,141.9728 " fill="none" id="cases-to-persons" style="stroke:#181818;stroke-width:1.0;"/><polygon fill="#181818" points="170.02,147.82,175.9364,139.9462,171.1413,142.9473,168.1402,138.1522,170.02,147.82" style="stroke:#181818;stroke-width:1.0;"/><polygon fill="#000000" points="194.0373,111.8212,203.4357,110.3654,200.7851,105.1191,194.0373,111.8212" style="stroke:#000000;stroke-width:1.0;"/><text fill="#000000" font-family="sans-serif" font-size="13" lengthAdjust="spacing" textLength="62" x="207.5" y="114.0669">submitter</text><text fill="#000000" font-family="sans-serif" font-size="13" lengthAdjust="spacing" textLength="8" x="162.1061" y="136.9517">1</text></g><!--link cases to designation-objects--><g id="link_cases_designation-objects"><path codeLine="30" d="M433.68,71.28 C455.24,99.19 482.6495,134.6537 502.0295,159.7137 " fill="none" id="cases-to-designation-objects" style="stroke:#181818;stroke-width:1.0;"/><polygon fill="#181818" points="505.7,164.46,503.3584,154.8935,502.6412,160.5048,497.03,159.7876,505.7,164.46" style="stroke:#181818;stroke-width:1.0;"/><polygon fill="#000000" points="474.5576,113.5225,471.3517,104.5686,466.701,108.1631,474.5576,113.5225" style="stroke:#000000;stroke-width:1.0;"/><text fill="#000000" font-family="sans-serif" font-size="13" lengthAdjust="spacing" textLength="100" x="480.5" y="114.0669">primary-subject</text><text fill="#000000" font-family="sans-serif" font-size="13" lengthAdjust="spacing" textLength="8" x="492.1138" y="153.4618">1</text></g><!--link cases to contact-points--><g id="link_cases_contact-points"><path codeLine="31" d="M375.54,71.21 C355.33,91.41 330.58,119.22 314.5,148 C312.51,151.56 285.5326,240.5456 267.5626,300.1256 " fill="none" id="cases-to-contact-points" style="stroke:#181818;stroke-width:1.0;"/><polygon fill="#181818" points="265.83,305.87,272.2585,298.4084,267.2738,301.083,264.5993,296.0983,265.83,305.87" style="stroke:#181818;stroke-width:1.0;"/><polygon fill="#000000" points="317.3669,193.0886,323.8838,186.1617,318.5676,183.6541,317.3669,193.0886" style="stroke:#000000;stroke-width:1.0;"/><text fill="#000000" font-family="sans-serif" font-size="13" lengthAdjust="spacing" textLength="92" x="328.5" y="193.0669">contact-points</text><text fill="#000000" font-family="sans-serif" font-size="13" lengthAdjust="spacing" textLength="7" x="260.353" y="295.0606">*</text></g><!--link contact-points to address-representations--><g id="link_contact-points_address-representations"><path codeLine="36" d="M269.54,403.26 C278.44,426.8 287.0882,449.7177 296.3582,474.2377 " fill="none" id="contact-points-to-address-representations" style="stroke:#181818;stroke-width:1.0;"/><polygon fill="#181818" points="298.48,479.85,299.0389,470.017,296.7118,475.1731,291.5558,472.8461,298.48,479.85" style="stroke:#181818;stroke-width:1.0;"/><polygon fill="#000000" points="292.2673,446.2437,291.8195,436.7437,286.321,438.8212,292.2673,446.2437" style="stroke:#000000;stroke-width:1.0;"/><text fill="#000000" font-family="sans-serif" font-size="13" lengthAdjust="spacing" textLength="51" x="299.5" y="446.0669">address</text><text fill="#000000" font-family="sans-serif" font-size="13" lengthAdjust="spacing" textLength="8" x="287.4307" y="469.0953">1</text></g><!--SRC=[bLGxSeGm3EqvXOSoCoxIfjXBv0J2rYRE-3UsABXzPF022ruogR2bzwIdZyb8meF3747X9qP8G2497pnsoaBEee-OSl2vxzQJ-13i8bc8JzOnevPtayu-AM-YV-z5RpHwCdV3ZiBOhk8cZlWtnglW2HJ968odcV9iARGgT1-wUvte0TUOpPS7Ci7BCFoWea9hMJVre7N2d6N2o5-EE0Fd1DKrbt4Tn0QrkBZR2ktCNewxOcB815OQGZUtVdzb_13qz83Mp5XmstbhuONeX7TCw1MFRPXssKyIkwPg1Pht8B4mNLQ770Tl8pFtW4rjfn_TiCtbbTpkgX0tUgDC16jeghjtWMRDYFGthdPT1NsD6yOiQn6lOSSbmkS9x3TPmJBDvLiQdH08zMfPOnttWc-9rccUuTjRpUFW355zU4TWSuEv8SauI9DaSh6TgFzyiGTer-0kCphRqO6nBGUXnVXT_bydv_-UyIy0]--></g></svg>